<svg width="130" height="131" viewBox="0 0 130 131" fill="none" xmlns="http://www.w3.org/2000/svg">
<path d="M44.2082 16.8129V17.3129H44.7082H59.611C59.7607 17.3129 59.9043 17.3724 60.0101 17.4783C60.116 17.5841 60.1755 17.7277 60.1755 17.8774C60.1755 18.0271 60.116 18.1707 60.0101 18.2766C59.9043 18.3824 59.7607 18.4419 59.611 18.4419H43.6438C43.4941 18.4419 43.3505 18.3824 43.2446 18.2766C43.1388 18.1707 43.0793 18.0271 43.0793 17.8774V1.91018C43.0793 1.76047 43.1388 1.6169 43.2446 1.51104C43.3505 1.40518 43.4941 1.3457 43.6438 1.3457C43.7935 1.3457 43.9371 1.40518 44.0429 1.51104C44.1488 1.6169 44.2082 1.76047 44.2082 1.91018V16.8129Z" fill="black" stroke="black"/>
<path d="M59.0467 17.4724V17.2653L58.9002 17.1189L43.5568 1.77541L43.4103 1.62896H43.2032H11.7095C10.4476 1.62896 9.23738 2.13024 8.3451 3.02253C7.45281 3.91481 6.95153 5.12501 6.95153 6.38689V27.2869C6.95153 27.4366 6.89206 27.5802 6.7862 27.6861C6.68034 27.7919 6.53676 27.8514 6.38705 27.8514C6.23734 27.8514 6.09376 27.7919 5.9879 27.6861C5.88204 27.5802 5.82257 27.4366 5.82257 27.2869V6.38689C5.82257 4.82559 6.4428 3.32824 7.5468 2.22423C8.65081 1.12023 10.1482 0.500002 11.7095 0.500002L43.6439 0.500003L43.6448 0.500001C43.719 0.499868 43.7925 0.514357 43.861 0.54264C43.9295 0.57089 43.9918 0.612348 44.0443 0.664648C44.0443 0.664709 44.0444 0.664769 44.0445 0.664829L60.0108 16.6312C60.0632 16.6837 60.1047 16.746 60.133 16.8146C60.1613 16.8832 60.1758 16.9566 60.1756 17.0308V17.0317V27.6403C60.1756 27.7145 60.161 27.7879 60.1327 27.8564C60.1043 27.9248 60.0627 27.9871 60.0103 28.0395C59.9579 28.0919 59.8956 28.1335 59.8272 28.1618C59.7587 28.1902 59.6853 28.2048 59.6111 28.2048C59.4614 28.2048 59.3179 28.1453 59.212 28.0395C59.1061 27.9336 59.0467 27.79 59.0467 27.6403V17.4724Z" fill="black" stroke="black"/>
<path d="M54.2887 76.9879H11.7095C10.1482 76.9879 8.65081 76.3677 7.5468 75.2637C6.44279 74.1597 5.82257 72.6623 5.82257 71.101V55.1338C5.82257 54.9841 5.88204 54.8405 5.9879 54.7347C6.09377 54.6288 6.23735 54.5693 6.38705 54.5693C6.53676 54.5693 6.68034 54.6288 6.7862 54.7347C6.89206 54.8405 6.95153 54.9841 6.95153 55.1338V71.101C6.95153 72.3629 7.45281 73.5731 8.3451 74.4654C9.23738 75.3577 10.4476 75.859 11.7095 75.859H54.2887C55.5506 75.859 56.7608 75.3577 57.6531 74.4654C58.5454 73.5731 59.0467 72.3629 59.0467 71.101V55.1338C59.0467 54.9841 59.1061 54.8405 59.212 54.7347C59.3179 54.6288 59.4614 54.5693 59.6111 54.5693C59.7609 54.5693 59.9044 54.6288 60.0103 54.7347C60.1162 54.8405 60.1756 54.9841 60.1756 55.1338V71.101C60.1756 72.6623 59.5554 74.1597 58.4514 75.2637C57.3474 76.3677 55.85 76.9879 54.2887 76.9879Z" fill="black" stroke="black"/>
<path d="M48.9662 55.6983H17.0318C16.8821 55.6983 16.7385 55.6388 16.6326 55.533C16.5268 55.4271 16.4673 55.2835 16.4673 55.1338C16.4673 54.9841 16.5268 54.8405 16.6326 54.7347C16.7385 54.6288 16.8821 54.5693 17.0318 54.5693H48.9662C49.1159 54.5693 49.2595 54.6288 49.3654 54.7347C49.4712 54.8405 49.5307 54.9841 49.5307 55.1338C49.5307 55.2835 49.4712 55.4271 49.3654 55.533C49.2595 55.6388 49.1159 55.6983 48.9662 55.6983Z" stroke="black"/>
<path d="M32.999 66.3428H17.0318C16.8821 66.3428 16.7385 66.2834 16.6326 66.1775C16.5268 66.0716 16.4673 65.9281 16.4673 65.7783C16.4673 65.6286 16.5268 65.4851 16.6326 65.3792C16.7385 65.2733 16.8821 65.2139 17.0318 65.2139H32.999C33.1487 65.2139 33.2923 65.2733 33.3981 65.3792C33.504 65.4851 33.5635 65.6286 33.5635 65.7783C33.5635 65.9281 33.504 66.0716 33.3981 66.1775C33.2923 66.2834 33.1487 66.3428 32.999 66.3428Z" fill="black" stroke="black"/>
<path d="M59.6111 55.699H59.611H6.38689C4.82559 55.699 3.32824 55.0787 2.22423 53.9747C1.12022 52.8707 0.5 51.3734 0.5 49.8121V33.4553C0.5 31.8939 1.12022 30.3966 2.22423 29.2926C3.32824 28.1886 4.82559 27.5684 6.38689 27.5684H6.42781H6.42947L59.6489 27.9217C59.6491 27.9217 59.6493 27.9218 59.6496 27.9218C61.2031 27.9364 62.6883 28.5626 63.7834 29.6646C64.8787 30.7668 65.4954 32.2563 65.5 33.8101V49.8121C65.5 50.5853 65.3477 51.351 65.0517 52.0653C64.7557 52.7797 64.3219 53.4288 63.7751 53.9754C63.2282 54.5221 62.579 54.9557 61.8646 55.2514C61.1501 55.5472 60.3844 55.6992 59.6111 55.699ZM64.3689 33.8087V33.8072C64.3652 32.5518 63.8668 31.3484 62.9818 30.458C62.0967 29.5676 60.8964 29.062 59.641 29.0508L59.6398 29.0507L6.41576 28.6973V28.6973H6.41244H6.38689C5.12501 28.6973 3.91481 29.1986 3.02253 30.0909C2.13024 30.9832 1.62896 32.1934 1.62896 33.4553V49.8121C1.62896 51.074 2.13024 52.2842 3.02253 53.1764C3.91481 54.0687 5.12501 54.57 6.38689 54.57H59.611C60.8729 54.57 62.0831 54.0687 62.9753 53.1764C63.8676 52.2842 64.3689 51.074 64.3689 49.8121V33.8087Z" fill="black" stroke="black"/>
<path d="M20.7896 42.3346V46.3331H19.7437V35.9814H23.8933C25.1419 35.9814 25.969 36.2959 26.4802 36.8294C27.0197 37.3964 27.315 38.1527 27.3024 38.9352C27.2898 39.7147 26.9729 40.4581 26.4195 41.0068C25.7979 41.5677 24.9823 41.8647 24.1453 41.8349L24.1364 41.8346H24.1275H21.2896H20.7896V42.3346ZM20.7896 40.5803V41.0803H21.2896H23.7102C24.4192 41.0803 25.0421 40.9054 25.4988 40.4799L25.4988 40.4799L25.5031 40.4758C25.7214 40.2675 25.8925 40.015 26.0051 39.735C26.1157 39.4599 26.1672 39.1646 26.1562 38.8684C26.1622 38.3003 25.9486 37.7517 25.5595 37.3372C25.1053 36.8486 24.3687 36.6804 23.5271 36.6804H21.2896H20.7896V37.1804V40.5803Z" fill="black" stroke="black"/>
<path d="M30.9831 45.162L30.9832 45.6618H31.4831H33.1831C33.6933 45.668 34.1988 45.5644 34.6655 45.358C35.1314 45.1518 35.5475 44.8481 35.8858 44.4672C36.6365 43.6552 36.97 42.4935 36.9712 41.0713C37.0041 39.9642 36.6802 38.8757 36.0472 37.9667C35.7585 37.5378 35.3671 37.1878 34.9087 36.9486C34.4503 36.7095 33.9394 36.5887 33.4225 36.5973H31.4809H30.9808L30.9809 37.0975L30.9831 45.162ZM29.8796 46.3331V35.9814H33.5737C34.9869 35.9814 36.0855 36.4737 36.9195 37.448C37.7699 38.4414 38.2045 39.6704 38.2045 41.1679C38.2045 42.6677 37.758 43.8897 36.8837 44.8694C36.0351 45.8204 34.8048 46.3276 33.1153 46.3331H29.8796Z" fill="black" stroke="black"/>
<path d="M42.7049 40.8376H46.1967V41.5408H42.7049H42.2049V42.0408V46.3331H41.0994V35.9814H47.2761V36.7357H42.7049H42.2049V37.2357V40.3376V40.8376H42.7049Z" fill="black" stroke="black"/>
<path d="M115.292 90.4951V90.9951H115.792H126.059C126.129 90.9951 126.192 91.0218 126.234 91.0615C126.275 91.1003 126.292 91.1469 126.292 91.1893C126.292 91.2317 126.275 91.2783 126.234 91.3171C126.192 91.3568 126.129 91.3836 126.059 91.3836H115.059C114.988 91.3836 114.926 91.3568 114.884 91.3171C114.843 91.2783 114.825 91.2317 114.825 91.1893V80.7753C114.825 80.7329 114.843 80.6863 114.884 80.6475C114.926 80.6078 114.988 80.5811 115.059 80.5811C115.129 80.5811 115.191 80.6078 115.233 80.6475C115.274 80.6863 115.292 80.7329 115.292 80.7753V90.4951Z" fill="#0F3D4A" stroke="#0F3D4A"/>
<path d="M123.378 130.924H94.044C92.877 130.924 91.7578 130.485 90.9326 129.704C90.1074 128.923 89.6439 127.863 89.6439 126.759V116.345C89.6439 116.161 89.7211 115.984 89.8587 115.854C89.9962 115.724 90.1827 115.65 90.3772 115.65C90.5717 115.65 90.7582 115.724 90.8958 115.854C91.0333 115.984 91.1106 116.161 91.1106 116.345V126.759C91.1106 127.495 91.4196 128.202 91.9697 128.722C92.5199 129.243 93.266 129.536 94.044 129.536H123.378C124.156 129.536 124.902 129.243 125.452 128.722C126.002 128.202 126.311 127.495 126.311 126.759V116.345C126.311 116.161 126.389 115.984 126.526 115.854C126.664 115.724 126.85 115.65 127.045 115.65C127.239 115.65 127.426 115.724 127.563 115.854C127.701 115.984 127.778 116.161 127.778 116.345V126.759C127.778 127.863 127.315 128.923 126.489 129.704C125.664 130.485 124.545 130.924 123.378 130.924Z" fill="#0F3D4A"/>
<path d="M125.791 91.0926V90.8756L125.632 90.7274L115.213 80.9864L115.069 80.8516H114.872H93.4868C92.5979 80.8516 91.7391 81.1815 91.1009 81.7781C90.4616 82.3758 90.0956 83.194 90.0956 84.0548V97.3235C90.0956 97.3588 90.0809 97.4002 90.0424 97.4361C90.0028 97.4731 89.9423 97.4993 89.8728 97.4993C89.8032 97.4993 89.7427 97.4731 89.7031 97.4361C89.6647 97.4002 89.65 97.3588 89.65 97.3235V84.0548C89.65 83.1233 90.0454 82.2225 90.7617 81.5529C91.4791 80.8821 92.4588 80.5 93.4868 80.5L115.171 80.5L115.172 80.5C115.206 80.4999 115.239 80.5061 115.268 80.5176C115.298 80.529 115.323 80.5449 115.342 80.5629C115.342 80.5629 115.342 80.563 115.342 80.563L126.183 90.6991C126.202 90.7172 126.216 90.7367 126.224 90.7557C126.233 90.7747 126.236 90.7936 126.236 90.8119V90.8128V97.5478C126.236 97.5661 126.232 97.585 126.224 97.6039C126.216 97.6229 126.202 97.6425 126.183 97.6605C126.164 97.6786 126.139 97.6945 126.109 97.706C126.08 97.7174 126.047 97.7236 126.013 97.7236C125.944 97.7236 125.883 97.6975 125.844 97.6605C125.805 97.6245 125.791 97.5832 125.791 97.5478V91.0926Z" fill="#0F3D4A" stroke="#0F3D4A"/>
<rect x="129.86" y="95.5664" width="20.1602" height="43.8615" rx="5" transform="rotate(89.6034 129.86 95.5664)" fill="#0F3D4A"/>
<path d="M98.6898 106.454V109.113H98.1924V102.141H101.095C101.994 102.141 102.56 102.358 102.899 102.698C103.267 103.069 103.465 103.56 103.457 104.064C103.448 104.565 103.236 105.047 102.86 105.406C102.432 105.776 101.867 105.974 101.284 105.954L101.275 105.954H101.267H99.1898H98.6898V106.454ZM98.6898 105.222V105.722H99.1898H100.961C101.496 105.722 101.987 105.596 102.354 105.267L102.354 105.267L102.359 105.263C102.533 105.103 102.671 104.908 102.763 104.69C102.852 104.477 102.894 104.248 102.886 104.017C102.89 103.575 102.716 103.152 102.406 102.835C102.034 102.451 101.45 102.334 100.827 102.334H99.1898H98.6898V102.834V105.222Z" fill="white" stroke="white"/>
<path d="M106.137 108.44L106.137 108.94H106.637H107.882C108.272 108.944 108.659 108.868 109.016 108.717C109.373 108.565 109.694 108.342 109.956 108.06C110.541 107.452 110.792 106.592 110.793 105.569C110.817 104.756 110.569 103.958 110.087 103.294C109.86 102.972 109.556 102.712 109.202 102.535C108.848 102.358 108.455 102.269 108.058 102.276H106.636H106.135L106.136 102.776L106.137 108.44ZM105.596 109.113V102.141H108.169C109.177 102.141 109.945 102.476 110.527 103.127C111.124 103.795 111.43 104.62 111.43 105.635C111.43 106.65 111.116 107.469 110.503 108.127C109.913 108.76 109.05 109.11 107.833 109.113H105.596Z" fill="white" stroke="white"/>
<path d="M114.572 105.551H116.923V105.748H114.572H114.072V106.248V109.113H113.568V102.141H117.694V102.373H114.572H114.072V102.873V105.051V105.551H114.572Z" fill="white" stroke="white"/>
<path d="M67.8252 64.6675L82.4952 79.9683M82.4952 79.9683L82.6529 72.4756M82.4952 79.9683L75.0025 79.8107" stroke="black" stroke-width="2" stroke-linecap="round" stroke-linejoin="round"/>
</svg>
