<svg width="130" height="130" viewBox="0 0 130 130" fill="none" xmlns="http://www.w3.org/2000/svg">
<path d="M112.601 82.3656V82.8656H113.101H125.198C125.303 82.8656 125.399 82.9054 125.465 82.9683C125.531 83.0303 125.562 83.1083 125.562 83.1836C125.562 83.2588 125.531 83.3369 125.465 83.3989C125.399 83.4618 125.303 83.5016 125.198 83.5016H112.237C112.132 83.5016 112.036 83.4618 111.97 83.3989C111.904 83.3369 111.873 83.2588 111.873 83.1836V70.9137C111.873 70.8385 111.904 70.7604 111.97 70.6984C112.036 70.6355 112.132 70.5957 112.237 70.5957C112.342 70.5957 112.438 70.6355 112.504 70.6984C112.57 70.7604 112.601 70.8385 112.601 70.9137V82.3656Z" fill="#0F3D4A" stroke="#0F3D4A"/>
<path d="M122.039 130H87.4775C86.1025 130 84.7839 129.483 83.8116 128.562C82.8394 127.642 82.2932 126.393 82.2932 125.092V112.822C82.2932 112.605 82.3842 112.397 82.5463 112.243C82.7083 112.09 82.9281 112.004 83.1573 112.004C83.3864 112.004 83.6062 112.09 83.7682 112.243C83.9303 112.397 84.0213 112.605 84.0213 112.822V125.092C84.0213 125.96 84.3854 126.792 85.0336 127.405C85.6817 128.019 86.5608 128.364 87.4775 128.364H122.039C122.956 128.364 123.835 128.019 124.483 127.405C125.131 126.792 125.495 125.96 125.495 125.092V112.822C125.495 112.605 125.586 112.397 125.748 112.243C125.91 112.09 126.13 112.004 126.359 112.004C126.588 112.004 126.808 112.09 126.97 112.243C127.132 112.397 127.223 112.605 127.223 112.822V125.092C127.223 126.393 126.677 127.642 125.705 128.562C124.733 129.483 123.414 130 122.039 130Z" fill="#0F3D4A"/>
<path d="M124.793 83.0694V82.8524L124.634 82.7042L112.359 71.2272L112.215 71.0925H112.017H86.8211C85.7954 71.0925 84.8056 71.4731 84.0708 72.1601C83.3349 72.8482 82.9146 73.7888 82.9146 74.7774V90.4107C82.9146 90.478 82.8863 90.55 82.8236 90.6085C82.7599 90.6681 82.6666 90.7069 82.5629 90.7069C82.4592 90.7069 82.366 90.6681 82.3022 90.6085C82.2396 90.55 82.2113 90.478 82.2113 90.4107V74.7774C82.2113 73.6542 82.6882 72.5697 83.5494 71.7645C84.4117 70.9583 85.588 70.5 86.8211 70.5L112.37 70.5L112.371 70.5C112.421 70.4999 112.471 70.5092 112.516 70.5267C112.561 70.5441 112.6 70.5689 112.632 70.5981C112.632 70.5981 112.632 70.5981 112.632 70.5982L125.405 82.5408C125.436 82.5701 125.459 82.6029 125.474 82.6366C125.489 82.6701 125.496 82.7047 125.496 82.7388V82.7398V90.6751C125.496 90.7091 125.489 90.7437 125.474 90.7772C125.459 90.8109 125.436 90.8437 125.405 90.8729C125.374 90.9021 125.335 90.9269 125.29 90.9444C125.244 90.9619 125.195 90.9713 125.144 90.9713C125.041 90.9713 124.947 90.9325 124.884 90.8729C124.821 90.8143 124.793 90.7424 124.793 90.6751V83.0694Z" fill="#0F3D4A" stroke="#0F3D4A"/>
<rect x="129.677" y="88.3398" width="23.7529" height="51.6781" rx="5" transform="rotate(89.6034 129.677 88.3398)" fill="#0F3D4A"/>
<path d="M93.0403 101.168V104.391H92.2761V95.9971H95.7856C96.8569 95.9971 97.5515 96.2566 97.9738 96.6795C98.4241 97.1338 98.6669 97.7352 98.6565 98.3534C98.6462 98.9687 98.3858 99.5599 97.9242 99.9998C97.4024 100.451 96.7142 100.693 96.0046 100.668L95.9961 100.668H95.9875H93.5403H93.0403V101.168ZM93.0403 99.7165V100.216H93.5403H95.6277C96.245 100.216 96.7985 100.071 97.2094 99.7034L97.2094 99.7034L97.2137 99.6994C97.41 99.5198 97.5652 99.3006 97.6678 99.0558C97.7682 98.816 97.8155 98.5579 97.8058 98.2984C97.8106 97.8005 97.615 97.3237 97.2656 96.9665C96.8533 96.5409 96.1966 96.403 95.4698 96.403H93.5403H93.0403V96.903V99.7165Z" fill="white" stroke="white"/>
<path d="M101.815 103.508L101.815 104.008H102.315H103.782C104.23 104.013 104.673 103.926 105.083 103.752C105.493 103.578 105.86 103.322 106.16 102.999C106.828 102.306 107.121 101.317 107.122 100.124C107.151 99.1852 106.864 98.2639 106.306 97.4968C106.049 97.13 105.701 96.833 105.297 96.6308C104.892 96.4286 104.443 96.3271 103.989 96.3342H102.313H101.813L101.813 96.8344L101.815 103.508ZM100.999 104.391V95.9971H104.12C105.329 95.9971 106.26 96.4005 106.964 97.1885C107.683 97.9936 108.05 98.9873 108.05 100.203C108.05 101.419 107.674 102.407 106.934 103.201C106.219 103.969 105.175 104.386 103.724 104.391H100.999Z" fill="white" stroke="white"/>
<path d="M111.664 100.016H114.523V100.425H111.664H111.164V100.925V104.391H110.392V95.9971H115.431V96.4488H111.664H111.164V96.9488V99.5156V100.016H111.664Z" fill="white" stroke="white"/>
<path d="M34.1181 13.0188V13.5188H34.6181H46.1574C46.2434 13.5188 46.3259 13.553 46.3867 13.6138C46.4475 13.6746 46.4816 13.7571 46.4816 13.8431C46.4816 13.9291 46.4475 14.0115 46.3867 14.0724C46.3259 14.1332 46.2434 14.1673 46.1574 14.1673H33.7938C33.7078 14.1673 33.6254 14.1332 33.5646 14.0724C33.5038 14.0115 33.4696 13.9291 33.4696 13.8431V1.47951C33.4696 1.39352 33.5038 1.31105 33.5646 1.25024C33.6254 1.18943 33.7078 1.15527 33.7938 1.15527C33.8798 1.15527 33.9623 1.18943 34.0231 1.25024C34.0839 1.31105 34.1181 1.39352 34.1181 1.47951V13.0188Z" stroke="#E54C21"/>
<path d="M45.8332 13.529V13.3219L45.6867 13.1755L33.8062 1.29492L33.6597 1.14848H33.4526H9.0667C8.05969 1.14848 7.09392 1.54851 6.38185 2.26058C5.66979 2.97264 5.26975 3.93841 5.26975 4.94543V21.1285C5.26975 21.2145 5.23559 21.297 5.17479 21.3578C5.11398 21.4186 5.03151 21.4527 4.94551 21.4527C4.85952 21.4527 4.77705 21.4186 4.71624 21.3578C4.65544 21.297 4.62128 21.2145 4.62128 21.1285V4.94543C4.62128 3.76643 5.08963 2.63572 5.92331 1.80204C6.75699 0.968357 7.8877 0.500001 9.0667 0.500001L33.7938 0.500002L33.7947 0.500001C33.8373 0.499924 33.8795 0.508247 33.9189 0.524492C33.9582 0.540708 33.994 0.564501 34.0241 0.594513C34.0242 0.594568 34.0242 0.594623 34.0243 0.594678L46.387 12.9573C46.4171 12.9875 46.4409 13.0233 46.4571 13.0627C46.4734 13.1021 46.4817 13.1443 46.4816 13.1869V13.1878V21.4022C46.4816 21.4447 46.4733 21.4869 46.457 21.5262C46.4407 21.5656 46.4168 21.6013 46.3867 21.6314C46.3566 21.6615 46.3208 21.6854 46.2815 21.7017C46.2421 21.718 46.2 21.7264 46.1574 21.7264C46.0714 21.7264 45.9889 21.6922 45.9281 21.6314C45.8673 21.5706 45.8332 21.4881 45.8332 21.4022V13.529Z" stroke="#E54C21"/>
<path d="M42.0362 59.5004H9.0667C7.8877 59.5004 6.75699 59.0321 5.92331 58.1984C5.08963 57.3647 4.62128 56.234 4.62128 55.055V42.6914C4.62128 42.6054 4.65544 42.523 4.71624 42.4622C4.77705 42.4013 4.85952 42.3672 4.94551 42.3672C5.03151 42.3672 5.11398 42.4013 5.17479 42.4622C5.23559 42.523 5.26975 42.6054 5.26975 42.6914V55.055C5.26975 56.062 5.66979 57.0278 6.38185 57.7398C7.09392 58.4519 8.05969 58.8519 9.0667 58.8519H42.0362C43.0432 58.8519 44.009 58.4519 44.7211 57.7398C45.4331 57.0278 45.8332 56.062 45.8332 55.055V42.6914C45.8332 42.6054 45.8673 42.523 45.9281 42.4622C45.9889 42.4013 46.0714 42.3672 46.1574 42.3672C46.2434 42.3672 46.3259 42.4013 46.3867 42.4622C46.4475 42.523 46.4816 42.6054 46.4816 42.6914V55.055C46.4816 56.234 46.0133 57.3647 45.1796 58.1984C44.3459 59.0321 43.2152 59.5004 42.0362 59.5004Z" stroke="#E54C21"/>
<path d="M37.915 43.0157H13.1878C13.1018 43.0157 13.0194 42.9815 12.9586 42.9207C12.8977 42.8599 12.8636 42.7774 12.8636 42.6914C12.8636 42.6054 12.8977 42.523 12.9586 42.4622C13.0194 42.4013 13.1018 42.3672 13.1878 42.3672H37.915C38.0009 42.3672 38.0834 42.4013 38.1442 42.4622C38.205 42.523 38.2392 42.6054 38.2392 42.6914C38.2392 42.7774 38.205 42.8599 38.1442 42.9207C38.0834 42.9815 38.0009 43.0157 37.915 43.0157Z" stroke="#E54C21"/>
<path d="M25.5514 51.2579H13.1878C13.1018 51.2579 13.0194 51.2237 12.9586 51.1629C12.8977 51.1021 12.8636 51.0196 12.8636 50.9336C12.8636 50.8476 12.8977 50.7652 12.9586 50.7043C13.0194 50.6435 13.1018 50.6094 13.1878 50.6094H25.5514C25.6374 50.6094 25.7199 50.6435 25.7807 50.7043C25.8415 50.7652 25.8756 50.8476 25.8756 50.9336C25.8756 51.0196 25.8415 51.1021 25.7807 51.1629C25.7199 51.2237 25.6374 51.2579 25.5514 51.2579Z" stroke="#E54C21"/>
<path d="M46.1575 43.0151H46.1573H4.94543C3.76643 43.0151 2.63571 42.5467 1.80204 41.713C0.968356 40.8794 0.5 39.7486 0.5 38.5696V25.9044C0.5 24.7254 0.968356 23.5947 1.80204 22.761C2.63571 21.9273 3.76643 21.459 4.94543 21.459H4.97674H4.9784L46.1856 21.7326C46.1859 21.7326 46.1861 21.7326 46.1863 21.7326C47.3595 21.7437 48.4811 22.2166 49.308 23.0488C50.1352 23.8812 50.6009 25.0061 50.6044 26.1795V38.5696C50.6044 39.1536 50.4894 39.7317 50.2659 40.2712C50.0424 40.8106 49.7148 41.3007 49.3018 41.7136C48.8889 42.1264 48.3986 42.4538 47.8591 42.6771C47.3196 42.9004 46.7414 43.0153 46.1575 43.0151ZM49.9543 26.1781L49.9543 26.1766C49.9513 25.1748 49.5536 24.2146 48.8474 23.5041C48.1411 22.7936 47.1833 22.3901 46.1816 22.3811L46.1804 22.3811L4.96853 22.1075V22.1075H4.96521H4.94543C3.93841 22.1075 2.97264 22.5075 2.26058 23.2196C1.54851 23.9316 1.14848 24.8974 1.14848 25.9044V38.5696C1.14848 39.5767 1.54851 40.5424 2.26058 41.2545C2.97264 41.9666 3.93841 42.3666 4.94543 42.3666H46.1573C47.1643 42.3666 48.1301 41.9666 48.8422 41.2545C49.5542 40.5424 49.9543 39.5767 49.9543 38.5696L49.9543 26.1781Z" stroke="#E54C21"/>
<path d="M13.3035 30.7142V27.1375H14.7552V35.8741H13.3035V32.0891V32.0141H13.2285H9.83689H9.76189V32.0891V35.8741H8.31023V27.1375H9.76189V30.7142V30.7892H9.83689H13.2285H13.3035V30.7142Z" fill="#E54C21" stroke="#E54C21" stroke-width="0.15"/>
<path d="M19.8135 28.4358V35.8741H18.2452V28.4358V28.3608H18.1702H15.8819V27.1375H22.1752V28.3608H19.8885H19.8135V28.4358Z" fill="#E54C21" stroke="#E54C21" stroke-width="0.15"/>
<path d="M29.4849 27.1336H31.8751L31.8702 35.8736H30.3868V28.1686L30.2403 28.146L27.7952 35.8736H27.0717L24.615 28.1459L24.4685 28.1686V35.8736H23.3102V27.1369H25.6807L27.5255 32.8051L27.5974 33.026L27.6682 32.8048L29.4849 27.1336Z" fill="#E54C21" stroke="#E54C21" stroke-width="0.15"/>
<path d="M39.2981 35.8741H33.9801V27.1375H35.5084V34.4975V34.5725H35.5834H39.2921L39.2981 35.8741Z" fill="#E54C21" stroke="#E54C21" stroke-width="0.15"/>
<path d="M54.8252 60.6675L69.4952 75.9683M69.4952 75.9683L69.6529 68.4756M69.4952 75.9683L62.0025 75.8107" stroke="black" stroke-width="2" stroke-linecap="round" stroke-linejoin="round"/>
</svg>
