<svg width="131" height="131" viewBox="0 0 131 131" fill="none" xmlns="http://www.w3.org/2000/svg">
<path d="M115.925 11.0657V11.5657H116.425H126.234C126.287 11.5657 126.338 11.5869 126.376 11.6245C126.413 11.6621 126.435 11.7131 126.435 11.7663C126.435 11.8195 126.413 11.8706 126.376 11.9082C126.338 11.9458 126.287 11.9669 126.234 11.9669H115.725C115.672 11.9669 115.621 11.9458 115.583 11.9082C115.545 11.8706 115.524 11.8195 115.524 11.7663V1.25725C115.524 1.20404 115.545 1.15302 115.583 1.1154C115.621 1.07778 115.672 1.05664 115.725 1.05664C115.778 1.05664 115.829 1.07778 115.867 1.1154C115.904 1.15302 115.925 1.20404 115.925 1.25725V11.0657Z" stroke="black"/>
<path d="M126.033 11.4997V11.2926L125.887 11.1462L115.788 1.04766L115.642 0.901211H115.435H94.7067C93.8309 0.901211 92.9909 1.24914 92.3716 1.86847C91.7523 2.48779 91.4043 3.32778 91.4043 4.20363V17.9593C91.4043 18.0125 91.3832 18.0635 91.3456 18.1012C91.3079 18.1388 91.2569 18.1599 91.2037 18.1599C91.1505 18.1599 91.0995 18.1388 91.0619 18.1012C91.0242 18.0635 91.0031 18.0125 91.0031 17.9593V4.20363C91.0031 3.22137 91.3933 2.27934 92.0879 1.58477C92.7824 0.890204 93.7245 0.500001 94.7067 0.500001L115.725 0.500002L115.726 0.5C115.752 0.499953 115.778 0.505102 115.803 0.515155C115.827 0.52517 115.849 0.53986 115.868 0.558391C115.868 0.558453 115.868 0.558516 115.868 0.558579L126.376 11.0668C126.376 11.0669 126.376 11.067 126.376 11.0671C126.395 11.0857 126.409 11.1077 126.419 11.1319C126.429 11.1563 126.435 11.1824 126.435 11.2088V11.2097V18.1919C126.435 18.2183 126.429 18.2443 126.419 18.2687C126.409 18.293 126.394 18.3151 126.376 18.3338C126.357 18.3524 126.335 18.3672 126.311 18.3773C126.286 18.3873 126.26 18.3925 126.234 18.3925C126.181 18.3925 126.13 18.3714 126.092 18.3338C126.055 18.2961 126.033 18.2451 126.033 18.1919V11.4997Z" stroke="black"/>
<path d="M122.731 50.5002H94.7067C93.7245 50.5002 92.7824 50.11 92.0879 49.4155C91.3933 48.7209 91.0031 47.7789 91.0031 46.7966V36.2875C91.0031 36.2343 91.0242 36.1833 91.0619 36.1457C91.0995 36.108 91.1505 36.0869 91.2037 36.0869C91.2569 36.0869 91.3079 36.108 91.3456 36.1457C91.3832 36.1833 91.4043 36.2343 91.4043 36.2875V46.7966C91.4043 47.6725 91.7523 48.5124 92.3716 49.1318L92.7251 48.7782L92.3716 49.1318C92.9909 49.7511 93.8309 50.099 94.7067 50.099H122.731C123.607 50.099 124.447 49.7511 125.066 49.1318C125.685 48.5124 126.033 47.6725 126.033 46.7966V36.2875C126.033 36.2343 126.055 36.1833 126.092 36.1457C126.13 36.108 126.181 36.0869 126.234 36.0869C126.287 36.0869 126.338 36.108 126.376 36.1457C126.413 36.1833 126.435 36.2343 126.435 36.2875V46.7966C126.435 47.7789 126.044 48.7209 125.35 49.4155C124.655 50.11 123.713 50.5002 122.731 50.5002Z" stroke="black"/>
<path d="M119.228 36.4881H98.2097C98.1565 36.4881 98.1055 36.467 98.0678 36.4294L97.7143 36.7829L98.0678 36.4294C98.0302 36.3917 98.0091 36.3407 98.0091 36.2875C98.0091 36.2343 98.0302 36.1833 98.0678 36.1457C98.1055 36.108 98.1565 36.0869 98.2097 36.0869H119.228C119.281 36.0869 119.332 36.108 119.37 36.1457C119.407 36.1833 119.428 36.2343 119.428 36.2875C119.428 36.3407 119.407 36.3917 119.37 36.4294C119.332 36.467 119.281 36.4881 119.228 36.4881Z" stroke="black"/>
<path d="M108.719 43.494H98.2097C98.1565 43.494 98.1055 43.4728 98.0678 43.4352C98.0302 43.3976 98.0091 43.3466 98.0091 43.2934C98.0091 43.2402 98.0302 43.1892 98.0678 43.1515C98.1055 43.1139 98.1565 43.0928 98.2097 43.0928H108.719C108.772 43.0928 108.823 43.1139 108.861 43.1515C108.898 43.1892 108.919 43.2402 108.919 43.2934C108.919 43.3466 108.898 43.3976 108.861 43.4352C108.823 43.4728 108.772 43.494 108.719 43.494Z" stroke="black"/>
<path d="M126.234 36.4882H126.234H91.2036C90.2214 36.4882 89.2793 36.098 88.5848 35.4034C87.8902 34.7089 87.5 33.7668 87.5 32.7846V22.0191C87.5 21.0368 87.8902 20.0948 88.5848 19.4002C89.2793 18.7056 90.2214 18.3154 91.2036 18.3154H91.23H91.2317L126.257 18.548C126.257 18.548 126.258 18.548 126.258 18.548C127.235 18.5573 128.17 18.9513 128.859 19.6447C129.548 20.3379 129.936 21.2746 129.939 22.2519C129.939 22.2523 129.939 22.2527 129.939 22.2531L129.939 32.7846C129.939 33.271 129.843 33.7527 129.657 34.2022C129.471 34.6516 129.198 35.0599 128.854 35.4039C128.51 35.7478 128.101 36.0206 127.652 36.2066C127.202 36.3927 126.721 36.4884 126.234 36.4882ZM129.536 22.2517L129.536 22.2502C129.534 21.3789 129.188 20.5438 128.574 19.9259C127.959 19.308 127.126 18.9571 126.255 18.9493L126.254 18.9493L91.2238 18.7167L91.2238 18.7166H91.2204H91.2036C90.3278 18.7166 89.4878 19.0646 88.8685 19.6839C88.2491 20.3032 87.9012 21.1432 87.9012 22.0191V32.7846C87.9012 33.6604 88.2491 34.5004 88.8685 35.1197C89.4878 35.7391 90.3278 36.087 91.2036 36.087H126.234C127.11 36.087 127.95 35.7391 128.569 35.1197C129.188 34.5004 129.536 33.6604 129.536 32.7846L129.536 22.2517Z" stroke="black"/>
<path d="M100.512 27.863V30.3238H100.166V23.8525H102.726C103.521 23.8525 104.012 24.0527 104.305 24.3578C104.629 24.6985 104.806 25.1528 104.799 25.6229C104.791 26.09 104.602 26.5355 104.271 26.8649C103.895 27.2026 103.403 27.3814 102.898 27.3634L102.889 27.363H102.88H101.012H100.512V27.863ZM100.512 26.7084V27.2084H101.012H102.605C103.098 27.2084 103.556 27.0867 103.899 26.7674L103.899 26.7674L103.903 26.7633C104.065 26.6094 104.191 26.4227 104.274 26.2159C104.356 26.0138 104.394 25.797 104.386 25.5794C104.389 25.1631 104.232 24.7613 103.947 24.4574C103.599 24.0822 103.052 23.9707 102.485 23.9707H101.012H100.512V24.4707V26.7084Z" stroke="black"/>
<path d="M107.221 29.724L107.221 30.2238H107.721H108.839C109.199 30.2281 109.556 30.1549 109.885 30.0092C110.213 29.8639 110.507 29.6498 110.745 29.3814C111.278 28.8044 111.503 27.9924 111.504 27.0342C111.526 26.2702 111.303 25.5191 110.866 24.8917C110.66 24.5862 110.381 24.337 110.055 24.1666C109.728 23.9963 109.364 23.9102 108.996 23.9161H107.72H107.22L107.22 24.4162L107.221 29.724ZM106.837 30.3238V23.8525H109.097C109.981 23.8525 110.655 24.1578 111.169 24.758C111.699 25.3773 111.974 26.1454 111.974 27.0952C111.974 28.0452 111.692 28.8076 111.148 29.4176C110.629 29.9989 109.871 30.3202 108.795 30.3238H106.837Z" stroke="black"/>
<path d="M115.107 27.0487H117.234V27.1697H115.107H114.607V27.6697V30.3238H114.221V23.8525H117.945V24.0071H115.107H114.607V24.5071V26.5487V27.0487H115.107Z" stroke="black"/>
<path d="M28.9254 11.0657V11.5657H29.4254H39.2339C39.2871 11.5657 39.3381 11.5869 39.3758 11.6245C39.4134 11.6621 39.4345 11.7131 39.4345 11.7663C39.4345 11.8195 39.4134 11.8706 39.3758 11.9082C39.3381 11.9458 39.2871 11.9669 39.2339 11.9669H28.7248C28.6716 11.9669 28.6206 11.9458 28.583 11.9082C28.5454 11.8706 28.5242 11.8195 28.5242 11.7663V1.25725C28.5242 1.20404 28.5454 1.15302 28.583 1.1154C28.6206 1.07778 28.6716 1.05664 28.7248 1.05664C28.778 1.05664 28.8291 1.07778 28.8667 1.1154C28.9043 1.15302 28.9254 1.20404 28.9254 1.25725V11.0657Z" stroke="black"/>
<path d="M39.0334 11.4997V11.2926L38.8869 11.1462L28.7884 1.04766L28.642 0.901211H28.4348H7.70674C6.83089 0.901211 5.9909 1.24914 5.37158 1.86847C4.75226 2.48779 4.40432 3.32778 4.40432 4.20363V17.9593C4.40432 18.0125 4.38319 18.0635 4.34557 18.1012C4.30795 18.1388 4.25692 18.1599 4.20372 18.1599C4.15052 18.1599 4.09949 18.1388 4.06187 18.1012C4.02425 18.0635 4.00311 18.0125 4.00311 17.9593V4.20363C4.00311 3.22137 4.39332 2.27934 5.08788 1.58477C5.78245 0.890204 6.72448 0.500001 7.70674 0.500001L28.7249 0.500002L28.7258 0.5C28.7522 0.499953 28.7783 0.505102 28.8026 0.515155C28.8269 0.52517 28.849 0.53986 28.8676 0.558391C28.8677 0.558453 28.8678 0.558516 28.8678 0.558579L39.376 11.0668C39.3761 11.0669 39.3763 11.067 39.3764 11.0671C39.3948 11.0857 39.4094 11.1077 39.4194 11.1319C39.4295 11.1563 39.4346 11.1824 39.4346 11.2088V11.2097V18.1919C39.4346 18.2183 39.4294 18.2443 39.4193 18.2687C39.4092 18.293 39.3945 18.3151 39.3758 18.3338C39.3572 18.3524 39.3351 18.3672 39.3107 18.3773C39.2864 18.3873 39.2603 18.3925 39.234 18.3925C39.1808 18.3925 39.1298 18.3714 39.0921 18.3338C39.0545 18.2961 39.0334 18.2451 39.0334 18.1919V11.4997Z" stroke="black"/>
<path d="M35.731 50.5002H7.70674C6.72448 50.5002 5.78245 50.11 5.08788 49.4155C4.39332 48.7209 4.00311 47.7789 4.00311 46.7966V36.2875C4.00311 36.2343 4.02425 36.1833 4.06187 36.1457C4.09949 36.108 4.15052 36.0869 4.20372 36.0869C4.25692 36.0869 4.30795 36.108 4.34557 36.1457C4.38319 36.1833 4.40432 36.2343 4.40432 36.2875V46.7966C4.40432 47.6725 4.75226 48.5124 5.37158 49.1318L5.72513 48.7782L5.37158 49.1318C5.9909 49.7511 6.83089 50.099 7.70674 50.099H35.731C36.6068 50.099 37.4468 49.7511 38.0661 49.1318C38.6854 48.5124 39.0334 47.6725 39.0334 46.7966V36.2875C39.0334 36.2343 39.0545 36.1833 39.0921 36.1457C39.1298 36.108 39.1808 36.0869 39.234 36.0869C39.2872 36.0869 39.3382 36.108 39.3758 36.1457C39.4135 36.1833 39.4346 36.2343 39.4346 36.2875V46.7966C39.4346 47.7789 39.0444 48.7209 38.3498 49.4155C37.6553 50.11 36.7132 50.5002 35.731 50.5002Z" stroke="black"/>
<path d="M32.2279 36.4881H11.2097C11.1565 36.4881 11.1055 36.467 11.0678 36.4294L10.7143 36.7829L11.0678 36.4294C11.0302 36.3917 11.0091 36.3407 11.0091 36.2875C11.0091 36.2343 11.0302 36.1833 11.0678 36.1457C11.1055 36.108 11.1565 36.0869 11.2097 36.0869H32.2279C32.2811 36.0869 32.3321 36.108 32.3697 36.1457C32.4073 36.1833 32.4285 36.2343 32.4285 36.2875C32.4285 36.3407 32.4073 36.3917 32.3697 36.4294C32.3321 36.467 32.2811 36.4881 32.2279 36.4881Z" stroke="black"/>
<path d="M21.7188 43.494H11.2097C11.1565 43.494 11.1055 43.4728 11.0678 43.4352C11.0302 43.3976 11.0091 43.3466 11.0091 43.2934C11.0091 43.2402 11.0302 43.1892 11.0678 43.1515C11.1055 43.1139 11.1565 43.0928 11.2097 43.0928H21.7188C21.772 43.0928 21.823 43.1139 21.8606 43.1515C21.8982 43.1892 21.9194 43.2402 21.9194 43.2934C21.9194 43.3466 21.8982 43.3976 21.8606 43.4352C21.823 43.4728 21.772 43.494 21.7188 43.494Z" stroke="black"/>
<path d="M39.2341 36.4882H39.2339H4.20363C3.22137 36.4882 2.27933 36.098 1.58477 35.4034C0.890203 34.7089 0.5 33.7668 0.5 32.7846V22.0191C0.5 21.0368 0.890203 20.0948 1.58477 19.4002C2.27933 18.7056 3.22137 18.3154 4.20363 18.3154H4.23H4.23166L39.2573 18.548C39.2575 18.548 39.2577 18.548 39.2579 18.548C40.2354 18.5573 41.1698 18.9513 41.8588 19.6447C42.5477 20.3379 42.9357 21.2746 42.9389 22.2519C42.9389 22.2523 42.9389 22.2527 42.9389 22.2531L42.9389 32.7846C42.9389 33.271 42.8431 33.7527 42.6569 34.2022C42.4707 34.6516 42.1978 35.0599 41.8537 35.4039C41.5097 35.7478 41.1012 36.0206 40.6518 36.2066C40.2023 36.3927 39.7205 36.4884 39.2341 36.4882ZM42.5363 22.2517L42.5363 22.2502C42.5337 21.3789 42.1879 20.5438 41.5736 19.9259C40.9594 19.308 40.1264 18.9571 39.2552 18.9493L39.254 18.9493L4.22377 18.7167L4.22377 18.7166H4.22045H4.20363C3.32777 18.7166 2.48779 19.0646 1.86847 19.6839C1.24914 20.3032 0.90121 21.1432 0.90121 22.0191V32.7846C0.90121 33.6604 1.24914 34.5004 1.86847 35.1197C2.48779 35.7391 3.32778 36.087 4.20363 36.087H39.2339C40.1097 36.087 40.9497 35.7391 41.5691 35.1197C42.1884 34.5004 42.5363 33.6604 42.5363 32.7846L42.5363 22.2517Z" stroke="black"/>
<path d="M13.5121 27.863V30.3238H13.1655V23.8525H15.7258C16.5212 23.8525 17.0124 24.0527 17.3048 24.3578C17.6289 24.6985 17.8062 25.1528 17.7986 25.6229C17.7911 26.09 17.6017 26.5355 17.2709 26.8649C16.8951 27.2026 16.4029 27.3814 15.8977 27.3634L15.8888 27.363H15.8799H14.0121H13.5121V27.863ZM13.5121 26.7084V27.2084H14.0121H15.6053C16.0983 27.2084 16.5563 27.0867 16.899 26.7674L16.899 26.7674L16.9032 26.7633C17.0646 26.6094 17.1911 26.4227 17.2743 26.2159C17.3555 26.0138 17.3936 25.797 17.3861 25.5794C17.3894 25.1631 17.2325 24.7613 16.9474 24.4574C16.5985 24.0822 16.0519 23.9707 15.4848 23.9707H14.0121H13.5121V24.4707V26.7084Z" stroke="black"/>
<path d="M20.2211 29.724L20.2212 30.2238H20.7211H21.8389C22.1989 30.2281 22.5556 30.1549 22.8848 30.0092C23.2133 29.8639 23.5068 29.6498 23.7455 29.3814C24.2782 28.8044 24.5029 27.9924 24.5041 27.0342C24.5263 26.2702 24.3026 25.5191 23.866 24.8917C23.6602 24.5862 23.3813 24.337 23.0548 24.1666C22.7282 23.9963 22.3643 23.9102 21.9961 23.9161H20.7197H20.2195L20.2197 24.4162L20.2211 29.724ZM19.8367 30.3238V23.8525H22.0971C22.9815 23.8525 23.6555 24.1578 24.1693 24.758C24.6995 25.3773 24.974 26.1454 24.974 27.0952C24.974 28.0452 24.6924 28.8076 24.1481 29.4176C23.6293 29.9989 22.8708 30.3202 21.795 30.3238H19.8367Z" stroke="black"/>
<path d="M28.1069 27.0487H30.2341V27.1697H28.1069H27.6069V27.6697V30.3238H27.2211V23.8525H30.9446V24.0071H28.1069H27.6069V24.5071V26.5487V27.0487H28.1069Z" stroke="black"/>
<path d="M74.9272 74.5944V75.0944H75.4272H89.7038C89.8502 75.0944 89.9855 75.1498 90.0811 75.2403C90.1758 75.33 90.2236 75.4455 90.2236 75.5599C90.2236 75.6742 90.1758 75.7898 90.0811 75.8794C89.9855 75.97 89.8502 76.0253 89.7038 76.0253H74.4074C74.261 76.0253 74.1257 75.97 74.0301 75.8794C73.9354 75.7898 73.8876 75.6742 73.8876 75.5599V61.0787C73.8876 60.9644 73.9354 60.8488 74.0301 60.7591C74.1257 60.6686 74.261 60.6133 74.4074 60.6133C74.5538 60.6133 74.6891 60.6686 74.7847 60.7591C74.8794 60.8488 74.9272 60.9644 74.9272 61.0787V74.5944Z" fill="#0F3D4A" stroke="#0F3D4A"/>
<path d="M85.8846 131H45.1154C43.4935 131 41.938 130.31 40.7912 129.083C39.6443 127.855 39 126.191 39 124.455V108.091C39 107.802 39.1074 107.524 39.2985 107.32C39.4897 107.115 39.7489 107 40.0192 107C40.2895 107 40.5488 107.115 40.7399 107.32C40.9311 107.524 41.0385 107.802 41.0385 108.091V124.455C41.0385 125.612 41.468 126.722 42.2326 127.54C42.9971 128.358 44.0341 128.818 45.1154 128.818H85.8846C86.9659 128.818 88.0029 128.358 88.7674 127.54C89.532 126.722 89.9615 125.612 89.9615 124.455V108.091C89.9615 107.802 90.0689 107.524 90.2601 107.32C90.4512 107.115 90.7105 107 90.9808 107C91.2511 107 91.5103 107.115 91.7015 107.32C91.8926 107.524 92 107.802 92 108.091V124.455C92 126.191 91.3557 127.855 90.2088 129.083C89.062 130.31 87.5065 131 85.8846 131Z" fill="#0F3D4A"/>
<path d="M89.1355 75.4248V75.2078L88.977 75.0596L74.4894 61.5142L74.3452 61.3795H74.1479H44.4108C43.2224 61.3795 42.0764 61.8206 41.2265 62.6152C40.3754 63.4109 39.8904 64.4976 39.8904 65.6384V84.0891C39.8904 84.1945 39.8459 84.3029 39.7545 84.3884C39.662 84.4749 39.5297 84.5289 39.3853 84.5289C39.2409 84.5289 39.1086 84.4749 39.0161 84.3884C38.9246 84.3029 38.8802 84.1945 38.8802 84.0891V65.6384C38.8802 64.2869 39.4541 62.9833 40.488 62.0167C41.523 61.049 42.9336 60.5 44.4108 60.5L74.564 60.5L74.5649 60.5C74.6357 60.4999 74.7053 60.5129 74.7692 60.5375C74.8328 60.5621 74.8886 60.5973 74.9342 60.6396C74.9343 60.6398 74.9345 60.6399 74.9346 60.6401L90.0103 74.7352C90.0557 74.7778 90.0898 74.8265 90.1123 74.8776C90.1348 74.9285 90.1458 74.9819 90.1457 75.0348V75.0357V84.4011C90.1457 84.454 90.1346 84.5073 90.1121 84.5582C90.0895 84.6093 90.0553 84.6579 90.0099 84.7004L90.3513 85.0656L90.0099 84.7004C89.9643 84.743 89.9085 84.7784 89.8447 84.8031C89.7809 84.8278 89.7115 84.8409 89.6406 84.8409C89.4962 84.8409 89.3639 84.7869 89.2714 84.7004L88.9299 85.0656L89.2714 84.7004C89.18 84.6149 89.1355 84.5065 89.1355 84.4011V75.4248Z" fill="#0F3D4A" stroke="#0F3D4A"/>
<rect x="94.9901" y="81.6455" width="28.0337" height="60.9916" rx="5" transform="rotate(89.6034 94.9901 81.6455)" fill="#0F3D4A"/>
<path d="M51.841 96.7849V100.678H50.7588V90.5918H54.9909C56.2682 90.5918 57.1156 90.9012 57.6374 91.4238C58.1857 91.9768 58.482 92.7099 58.4693 93.4644C58.4567 94.216 58.1383 94.9372 57.5755 95.4727C56.942 96.0213 56.1068 96.3147 55.2464 96.2852L55.2378 96.2849H55.2293H52.341H51.841V96.7849ZM51.841 95.0716V95.5716H52.341H54.8046C55.52 95.5716 56.1485 95.4028 56.6113 94.989L56.6113 94.989L56.6156 94.985C56.8377 94.7817 57.0133 94.5337 57.1292 94.2571C57.243 93.9854 57.2963 93.693 57.2851 93.3992C57.2911 92.8352 57.0697 92.2943 56.6731 91.8889C56.2129 91.4138 55.4698 91.2511 54.6182 91.2511H52.341H51.841V91.7511V95.0716Z" fill="white" stroke="white"/>
<path d="M62.197 99.5463L62.1971 100.046H62.697H64.4296C64.945 100.052 65.4564 99.9519 65.9291 99.7515C66.4011 99.5514 66.8244 99.2558 67.1695 98.8834C67.9369 98.0878 68.279 96.9471 68.2803 95.5517C68.314 94.4627 67.9813 93.3943 67.3346 92.5043C67.0392 92.0836 66.6403 91.7427 66.1759 91.5105C65.7115 91.2783 65.1951 91.1616 64.6736 91.17H62.6948H62.1947L62.1948 91.6701L62.197 99.5463ZM61.0534 100.678V90.5918H64.8275C66.2776 90.5918 67.4018 91.0768 68.2514 92.028C69.1164 92.9964 69.5562 94.1911 69.5562 95.6455C69.5562 97.1018 69.1044 98.2898 68.215 99.245C67.3496 100.174 66.0906 100.673 64.3602 100.678H61.0534Z" fill="white" stroke="white"/>
<path d="M73.731 95.3346H77.1952V95.998H73.731H73.231V96.498V100.678H72.14V90.5918H78.2671V91.3051H73.731H73.231V91.8051V94.8346V95.3346H73.731Z" fill="white" stroke="white"/>
<path d="M110 55V61.7344C109.999 65.1112 109.033 68.4022 107.239 71.1418C105.444 73.8814 102.912 75.9308 100 77" stroke="black" stroke-width="2" stroke-linecap="round" stroke-linejoin="round"/>
<path d="M29 77C26.0882 75.9308 23.5558 73.8814 21.7611 71.1418C19.9665 68.4022 19.0006 65.1112 19 61.7344V55" stroke="black" stroke-width="2" stroke-linecap="round" stroke-linejoin="round"/>
<path d="M24.9841 81.0627L31.4262 78.1474L28.511 71.7053" stroke="black" stroke-width="2" stroke-linecap="round" stroke-linejoin="round"/>
<path d="M100.111 70.9111L97.7423 77.5738L104.405 79.9421" stroke="black" stroke-width="2" stroke-linecap="round" stroke-linejoin="round"/>
</svg>
