<svg width="130" height="131" viewBox="0 0 130 131" fill="none" xmlns="http://www.w3.org/2000/svg">
<path d="M34.1182 13.0179V13.5179H34.6182H46.1576C46.2436 13.5179 46.3261 13.5521 46.3869 13.6129C46.4477 13.6737 46.4819 13.7562 46.4819 13.8422C46.4819 13.9282 46.4477 14.0107 46.3869 14.0715C46.3261 14.1323 46.2436 14.1664 46.1576 14.1664H33.794C33.708 14.1664 33.6255 14.1323 33.5647 14.0715C33.5039 14.0107 33.4697 13.9282 33.4697 13.8422V1.47854C33.4697 1.39254 33.5039 1.31007 33.5647 1.24927C33.6255 1.18846 33.708 1.1543 33.794 1.1543C33.88 1.1543 33.9624 1.18846 34.0232 1.24927C34.0841 1.31007 34.1182 1.39254 34.1182 1.47854V13.0179Z" fill="black" stroke="black"/>
<path d="M45.8335 13.5291V13.322L45.6871 13.1756L33.8064 1.29493L33.66 1.14849H33.4529H9.0668C8.05978 1.14849 7.094 1.54852 6.38193 2.2606C5.66986 2.97267 5.26982 3.93844 5.26982 4.94546V21.1287C5.26982 21.2146 5.23566 21.2971 5.17486 21.3579C5.11405 21.4187 5.03158 21.4529 4.94558 21.4529C4.85959 21.4529 4.77711 21.4187 4.71631 21.3579C4.6555 21.2971 4.62134 21.2146 4.62134 21.1287V4.94546C4.62134 3.76645 5.0897 2.63573 5.92338 1.80205C6.75707 0.968361 7.88779 0.500001 9.0668 0.500001L33.7941 0.500002L33.795 0.500001C33.8376 0.499924 33.8798 0.508247 33.9192 0.524493C33.9585 0.540709 33.9943 0.564501 34.0244 0.594514C34.0244 0.594569 34.0245 0.594624 34.0246 0.594679L46.3873 12.9574C46.3874 12.9575 46.3875 12.9576 46.3876 12.9577C46.4175 12.9878 46.4413 13.0235 46.4575 13.0628C46.4737 13.1022 46.4821 13.1444 46.482 13.187V13.1879V21.4023C46.482 21.4449 46.4736 21.487 46.4573 21.5264C46.441 21.5657 46.4171 21.6015 46.387 21.6316C46.3569 21.6617 46.3212 21.6856 46.2818 21.7019C46.2425 21.7182 46.2003 21.7265 46.1577 21.7265C46.0718 21.7265 45.9893 21.6924 45.9285 21.6316C45.8677 21.5708 45.8335 21.4883 45.8335 21.4023V13.5291Z" fill="black" stroke="black"/>
<path d="M42.0365 59.4996H9.0668C7.88779 59.4996 6.75707 59.0312 5.92338 58.1975C5.0897 57.3638 4.62134 56.2331 4.62134 55.0541V42.6905C4.62134 42.6045 4.6555 42.522 4.71631 42.4612C4.77712 42.4004 4.85959 42.3662 4.94558 42.3662C5.03157 42.3662 5.11405 42.4004 5.17486 42.4612C5.23566 42.522 5.26982 42.6045 5.26982 42.6905V55.0541C5.26982 56.0611 5.66986 57.0269 6.38193 57.739C7.094 58.451 8.05978 58.8511 9.0668 58.8511H42.0365C43.0436 58.8511 44.0093 58.451 44.7214 57.739C45.4335 57.0269 45.8335 56.0611 45.8335 55.0541V42.6905C45.8335 42.6045 45.8677 42.522 45.9285 42.4612C45.9893 42.4004 46.0718 42.3662 46.1577 42.3662C46.2437 42.3662 46.3262 42.4004 46.387 42.4612C46.4478 42.522 46.482 42.6045 46.482 42.6905V55.0541C46.482 56.2331 46.0136 57.3638 45.1799 58.1975C44.3463 59.0312 43.2155 59.4996 42.0365 59.4996Z" fill="black" stroke="black"/>
<path d="M37.9153 43.0147H13.188C13.102 43.0147 13.0195 42.9805 12.9587 42.9197C12.8979 42.8589 12.8637 42.7764 12.8637 42.6905C12.8637 42.6045 12.8979 42.522 12.9587 42.4612C13.0195 42.4004 13.102 42.3662 13.188 42.3662H37.9153C38.0012 42.3662 38.0837 42.4004 38.1445 42.4612C38.2053 42.522 38.2395 42.6045 38.2395 42.6905C38.2395 42.7764 38.2053 42.8589 38.1445 42.9197C38.0837 42.9805 38.0012 43.0147 37.9153 43.0147Z" stroke="black"/>
<path d="M25.5516 51.2579H13.188C13.102 51.2579 13.0195 51.2237 12.9587 51.1629C12.8979 51.1021 12.8637 51.0196 12.8637 50.9336C12.8637 50.8476 12.8979 50.7652 12.9587 50.7043C13.0195 50.6435 13.102 50.6094 13.188 50.6094H25.5516C25.6376 50.6094 25.7201 50.6435 25.7809 50.7043C25.8417 50.7652 25.8758 50.8476 25.8758 50.9336C25.8758 51.0196 25.8417 51.1021 25.7809 51.1629C25.7201 51.2237 25.6376 51.2579 25.5516 51.2579Z" fill="black" stroke="black"/>
<path d="M46.1578 43.0152H46.1576H4.94546C3.76645 43.0152 2.63573 42.5469 1.80204 41.7132C0.968359 40.8795 0.5 39.7488 0.5 38.5698V25.9044C0.5 24.7254 0.968359 23.5947 1.80204 22.761C2.63573 21.9273 3.76645 21.459 4.94546 21.459H4.97677H4.97843L46.1859 21.7326C46.1862 21.7326 46.1864 21.7326 46.1866 21.7326C47.3598 21.7437 48.4814 22.2166 49.3084 23.0488C50.1355 23.8813 50.6013 25.0061 50.6047 26.1796V38.5698C50.6047 39.1537 50.4897 39.7319 50.2662 40.2713C50.0427 40.8108 49.7151 41.3009 49.3022 41.7137C48.8892 42.1265 48.399 42.4539 47.8594 42.6773C47.3199 42.9006 46.7417 43.0154 46.1578 43.0152ZM49.9546 26.1781L49.9546 26.1766C49.9516 25.1748 49.5539 24.2146 48.8477 23.5041C48.1415 22.7936 47.1836 22.3901 46.1819 22.3811L46.1807 22.3811L4.96856 22.1075V22.1075H4.96524H4.94546C3.93844 22.1075 2.97266 22.5075 2.26059 23.2196C1.54852 23.9316 1.14849 24.8974 1.14849 25.9044V38.5698C1.14849 39.5768 1.54852 40.5426 2.26059 41.2546C2.97266 41.9667 3.93844 42.3667 4.94546 42.3667H46.1576C47.1646 42.3667 48.1304 41.9667 48.8425 41.2546C49.5546 40.5426 49.9546 39.5768 49.9546 38.5698L49.9546 26.1781Z" fill="black" stroke="black"/>
<path d="M15.9848 32.7801V35.7634H15.4006V27.9736H18.5009C19.4503 27.9736 20.0556 28.2126 20.4224 28.5953C20.8197 29.0129 21.0371 29.5698 21.0278 30.1461C21.0185 30.7193 20.7858 31.2661 20.3794 31.67C19.9201 32.0835 19.318 32.3025 18.7001 32.2804L18.6912 32.2801H18.6823H16.4848H15.9848V32.7801ZM15.9848 31.4218V31.9218H16.4848H18.3592C18.9256 31.9218 19.4396 31.782 19.821 31.4265L19.821 31.4266L19.8253 31.4225C20.006 31.2501 20.1477 31.041 20.2408 30.8093C20.332 30.5824 20.3747 30.339 20.366 30.0947C20.3703 29.6268 20.194 29.175 19.8735 28.8336C19.4889 28.4199 18.8778 28.2891 18.2174 28.2891H16.4848H15.9848V28.7891V31.4218Z" fill="black" stroke="black"/>
<path d="M23.8778 34.9694L23.8779 35.4693H24.3778H25.6935C26.1045 35.4742 26.5117 35.3907 26.8876 35.2244C27.2628 35.0584 27.598 34.8138 27.8706 34.5072C28.4773 33.8503 28.739 32.9195 28.7402 31.8037C28.766 30.923 28.5083 30.0574 28.005 29.3342C27.771 28.9868 27.4539 28.7034 27.0825 28.5096C26.7111 28.3159 26.2973 28.218 25.8786 28.2248H24.3761H23.876L23.8761 28.725L23.8778 34.9694ZM23.2491 35.7634V27.9736H25.9966C27.0607 27.9736 27.879 28.3424 28.5016 29.0698C29.1406 29.8162 29.4695 30.7409 29.4695 31.8767C29.4695 33.0136 29.1318 33.9321 28.4754 34.6677C27.8446 35.3746 26.9258 35.7591 25.6415 35.7634H23.2491Z" fill="black" stroke="black"/>
<path d="M33.0671 31.7338H35.658V32.0526H33.0671H32.5671V32.5526V35.7634H31.9367V27.9736H36.4938V28.332H33.0671H32.5671V28.832V31.2338V31.7338H33.0671Z" fill="black" stroke="black"/>
<path d="M54.8252 62.6675L69.4952 77.9683M69.4952 77.9683L69.6529 70.4756M69.4952 77.9683L62.0025 77.8107" stroke="black" stroke-width="2" stroke-linecap="round" stroke-linejoin="round"/>
<path d="M112.709 82.4041V82.9041H113.209H125.342C125.448 82.9041 125.544 82.9442 125.611 83.0075C125.677 83.07 125.709 83.1487 125.709 83.2246C125.709 83.3005 125.677 83.3792 125.611 83.4417C125.544 83.5051 125.448 83.5451 125.342 83.5451H112.342C112.236 83.5451 112.14 83.5051 112.073 83.4417C112.007 83.3792 111.975 83.3005 111.975 83.2246V70.9172C111.975 70.8413 112.007 70.7626 112.073 70.7001C112.14 70.6367 112.236 70.5967 112.342 70.5967C112.448 70.5967 112.544 70.6367 112.611 70.7001C112.677 70.7626 112.709 70.8413 112.709 70.9172V82.4041Z" fill="#D32F2E" stroke="#D32F2E"/>
<path d="M122.174 130.109H87.5065C86.146 130.109 84.8419 129.597 83.881 128.687C82.9203 127.778 82.3814 126.545 82.3814 125.261V112.953C82.3814 112.757 82.4637 112.568 82.6118 112.428C82.76 112.287 82.9618 112.208 83.1731 112.208C83.3843 112.208 83.5862 112.287 83.7344 112.428C83.8824 112.568 83.9648 112.757 83.9648 112.953V125.261C83.9648 126.152 84.339 127.007 85.0036 127.636C85.6681 128.265 86.5685 128.618 87.5065 128.618H122.174C123.112 128.618 124.012 128.265 124.677 127.636C125.342 127.007 125.716 126.152 125.716 125.261V112.953C125.716 112.757 125.798 112.568 125.946 112.428C126.094 112.287 126.296 112.208 126.507 112.208C126.719 112.208 126.921 112.287 127.069 112.428C127.217 112.568 127.299 112.757 127.299 112.953V125.261C127.299 126.545 126.76 127.778 125.799 128.687C124.839 129.597 123.535 130.109 122.174 130.109Z" fill="#D32F2E" stroke="#D32F2E" stroke-width="0.15"/>
<path d="M124.934 83.1094V82.8924L124.776 82.7442L112.463 71.2321L112.319 71.0973H112.121H86.8481C85.8197 71.0973 84.8273 71.479 84.0905 72.1678C83.3526 72.8577 82.9312 73.8009 82.9312 74.792V90.4732C82.9312 90.5412 82.9026 90.6137 82.8395 90.6727C82.7753 90.7328 82.6813 90.7719 82.577 90.7719C82.4726 90.7719 82.3786 90.7328 82.3144 90.6727C82.2513 90.6137 82.2227 90.5412 82.2227 90.4732V74.792C82.2227 73.665 82.7013 72.5767 83.5654 71.7688C84.4306 70.9598 85.6109 70.5 86.8481 70.5L112.475 70.5L112.476 70.5C112.527 70.4999 112.577 70.5093 112.622 70.5268C112.668 70.5444 112.707 70.5694 112.739 70.5988C112.739 70.5988 112.739 70.5988 112.739 70.5989L125.551 82.5781C125.583 82.6076 125.606 82.6407 125.621 82.6746C125.636 82.7085 125.643 82.7434 125.643 82.7778V82.7788V90.7384C125.643 90.7727 125.636 90.8077 125.621 90.8415C125.606 90.8754 125.583 90.9085 125.551 90.9379C125.52 90.9674 125.48 90.9924 125.435 91.01C125.389 91.0276 125.34 91.037 125.289 91.037C125.184 91.037 125.09 90.998 125.026 90.9379C124.963 90.8789 124.934 90.8063 124.934 90.7384V83.1094Z" fill="#D32F2E" stroke="#D32F2E"/>
<rect x="129.339" y="88.8999" width="22.8257" height="50.8363" rx="4.5" transform="rotate(89.6034 129.339 88.8999)" fill="#D32F2E" stroke="#D32F2E"/>
<path d="M97.1934 95.4971V101.85C97.1934 102.907 96.9807 103.67 96.5551 104.139C96.1296 104.609 95.4572 104.843 94.538 104.843C94.1207 104.858 93.7035 104.81 93.2981 104.702V103.367C93.763 103.403 94.0912 103.421 94.2827 103.421C94.7934 103.421 95.1423 103.317 95.3295 103.11C95.5168 102.903 95.6104 102.483 95.6104 101.85V95.4971H97.1934Z" fill="white"/>
<path d="M101.773 104.846H100.097V95.4971H103.906C104.992 95.4971 105.797 95.7723 106.322 96.3229C106.838 96.8681 107.121 97.5955 107.108 98.3481C107.096 99.1008 106.791 99.8186 106.257 100.347C105.668 100.885 104.892 101.17 104.096 101.141H101.773V104.846ZM101.773 99.6963H103.756C104.274 99.6963 104.669 99.5683 104.942 99.3123C105.079 99.1814 105.186 99.0226 105.256 98.8466C105.327 98.6705 105.359 98.4814 105.35 98.2919C105.356 97.9259 105.219 97.5723 104.968 97.3065C104.716 97.033 104.261 96.8962 103.603 96.8962H101.773V99.6963Z" fill="white"/>
<path d="M115.608 100.07V104.708H114.917L114.442 103.485C113.94 104.392 113.161 104.846 112.106 104.846C110.928 104.846 110.048 104.377 109.468 103.438C108.878 102.464 108.575 101.329 108.597 100.176C108.597 98.8696 108.922 97.7636 109.57 96.8576C110.219 95.9517 111.125 95.4982 112.291 95.4971C113.155 95.4971 113.871 95.7618 114.437 96.2913C114.991 96.8076 115.366 97.503 115.501 98.2675L114.145 98.5192C113.892 97.4126 113.287 96.8588 112.328 96.8576C112.037 96.8522 111.748 96.9207 111.487 97.0572C111.227 97.1937 111.001 97.3942 110.83 97.6417C110.444 98.1644 110.251 98.9682 110.251 100.053C110.251 102.344 110.935 103.489 112.304 103.489C112.55 103.496 112.795 103.448 113.023 103.348C113.25 103.249 113.455 103.099 113.623 102.91C113.983 102.493 114.171 101.942 114.145 101.38H112.362V100.065L115.608 100.07Z" fill="white"/>
</svg>
