<svg width="130" height="131" viewBox="0 0 130 131" fill="none" xmlns="http://www.w3.org/2000/svg">
<path d="M54.8252 61.6675L69.4952 76.9683M69.4952 76.9683L69.6529 69.4756M69.4952 76.9683L62.0025 76.8107" stroke="black" stroke-width="2" stroke-linecap="round" stroke-linejoin="round"/>
<path d="M112.391 83.2922V83.7922H112.891H124.916C125.019 83.7922 125.114 83.8315 125.179 83.8935C125.244 83.9546 125.275 84.0314 125.275 84.1053C125.275 84.1793 125.244 84.2561 125.179 84.3172C125.114 84.3792 125.019 84.4185 124.916 84.4185H112.033C111.929 84.4185 111.834 84.3792 111.769 84.3172C111.704 84.2561 111.674 84.1793 111.674 84.1053V71.9088C111.674 71.8349 111.704 71.758 111.769 71.697C111.834 71.635 111.929 71.5957 112.033 71.5957C112.136 71.5957 112.231 71.635 112.296 71.697C112.361 71.758 112.391 71.8349 112.391 71.9088V83.2922Z" fill="#0E753C" stroke="#0E753C"/>
<path d="M121.719 130.926H87.3644C86.0163 130.926 84.7241 130.419 83.772 129.517C82.8201 128.616 82.2861 127.395 82.2861 126.122V113.925C82.2861 113.731 82.3677 113.544 82.5142 113.405C82.661 113.266 82.8608 113.187 83.07 113.187C83.2792 113.187 83.479 113.266 83.6258 113.405C83.7723 113.544 83.8539 113.731 83.8539 113.925V126.122C83.8539 127.006 84.2248 127.853 84.8836 128.476C85.5422 129.1 86.4346 129.449 87.3644 129.449H121.719C122.649 129.449 123.542 129.1 124.2 128.476C124.859 127.853 125.23 127.006 125.23 126.122V113.925C125.23 113.731 125.312 113.544 125.458 113.405C125.605 113.266 125.805 113.187 126.014 113.187C126.223 113.187 126.423 113.266 126.57 113.405C126.716 113.544 126.798 113.731 126.798 113.925V126.122C126.798 127.395 126.264 128.616 125.312 129.517C124.36 130.419 123.068 130.926 121.719 130.926Z" fill="#0E753C" stroke="#0E753C" stroke-width="0.15"/>
<path d="M124.516 83.9913V83.7743L124.357 83.6261L112.156 72.2177L112.011 72.083H111.814H86.7684C85.7482 72.083 84.7636 72.4616 84.0326 73.145C83.3005 73.8295 82.8823 74.7653 82.8823 75.7489V91.2887C82.8823 91.3548 82.8545 91.4255 82.7929 91.4831C82.7301 91.5419 82.6381 91.5802 82.5357 91.5802C82.4334 91.5802 82.3414 91.5419 82.2786 91.4831C82.217 91.4255 82.1892 91.3548 82.1892 91.2887V75.7489C82.1892 74.6333 82.6629 73.556 83.5184 72.7561C84.3749 71.9553 85.5435 71.5 86.7684 71.5L112.164 71.5L112.165 71.5C112.215 71.4999 112.264 71.5091 112.309 71.5263C112.353 71.5435 112.392 71.5679 112.423 71.5967C112.423 71.5967 112.423 71.5967 112.423 71.5968L125.12 83.4681C125.151 83.4969 125.173 83.5292 125.188 83.5622C125.202 83.5952 125.209 83.6292 125.209 83.6627V83.6636V91.5515C125.209 91.5849 125.202 91.6189 125.187 91.6518C125.173 91.6849 125.15 91.7172 125.12 91.7459C125.089 91.7747 125.05 91.7992 125.006 91.8165C124.961 91.8337 124.913 91.843 124.863 91.843C124.76 91.843 124.668 91.8046 124.605 91.7459C124.544 91.6883 124.516 91.6175 124.516 91.5515V83.9913Z" fill="#0E753C" stroke="#0E753C"/>
<rect x="128.871" y="90.0327" width="22.611" height="50.3692" rx="4.5" transform="rotate(89.6034 128.871 90.0327)" fill="#0E753C" stroke="#0E753C"/>
<path d="M94.1274 105.532H88.1068V96.2676H94.0666V97.6455H89.7766V100.156H93.2239V101.499H89.7766V104.092H94.1204L94.1274 105.532Z" fill="white"/>
<path d="M100.817 105.464H99.0956L97.682 103.035L96.1399 105.464H94.8447L97.0665 102.03L95.144 98.7939H96.8687L97.9644 100.755L99.2123 98.7939H100.474L98.5883 101.687L100.817 105.464Z" fill="white"/>
<path d="M105.823 103.114L107.104 103.245C106.937 104.072 106.618 104.685 106.144 105.084C105.659 105.483 105.046 105.693 104.418 105.674C103.508 105.674 102.808 105.339 102.319 104.671C101.814 103.96 101.556 103.103 101.585 102.231C101.585 101.238 101.852 100.417 102.387 99.7687C102.644 99.4518 102.972 99.1989 103.343 99.0301C103.715 98.8612 104.121 98.781 104.529 98.7956C105.966 98.7956 106.821 99.553 107.095 101.068L105.815 101.243C105.703 100.425 105.3 100.016 104.606 100.016C104.377 100.006 104.15 100.064 103.954 100.183C103.758 100.302 103.602 100.477 103.506 100.685C103.264 101.184 103.147 101.734 103.163 102.288C103.163 102.957 103.282 103.471 103.519 103.83C103.623 104.001 103.771 104.142 103.947 104.237C104.123 104.332 104.322 104.378 104.522 104.371C105.176 104.368 105.61 103.949 105.823 103.114Z" fill="white"/>
<path d="M112.951 103.43L114.29 103.612C114.121 104.203 113.763 104.722 113.271 105.09C112.72 105.493 112.049 105.698 111.367 105.673C110.452 105.673 109.716 105.365 109.157 104.75C108.599 104.136 108.32 103.303 108.32 102.253C108.32 101.255 108.599 100.429 109.157 99.775C109.716 99.121 110.478 98.7939 111.446 98.7939C112.388 98.7939 113.113 99.1165 113.622 99.7616C114.131 100.407 114.389 101.235 114.394 102.246V102.413H109.872C109.861 102.778 109.904 103.141 110 103.493C110.091 103.774 110.266 104.021 110.502 104.2C110.773 104.407 111.108 104.513 111.449 104.501C112.19 104.502 112.691 104.145 112.951 103.43ZM112.859 101.454C112.874 101.023 112.72 100.602 112.43 100.282C112.298 100.142 112.139 100.03 111.962 99.9525C111.785 99.875 111.595 99.8336 111.402 99.8308C111.209 99.828 111.018 99.8638 110.839 99.9362C110.66 100.009 110.498 100.116 110.361 100.252C110.066 100.582 109.895 101.004 109.877 101.446L112.859 101.454Z" fill="white"/>
<path d="M117.449 105.532H115.901V96.2676H117.449V105.532Z" fill="white"/>
<path d="M34.1182 13.0179V13.5179H34.6182H46.1576C46.2436 13.5179 46.3261 13.5521 46.3869 13.6129C46.4477 13.6737 46.4819 13.7562 46.4819 13.8422C46.4819 13.9282 46.4477 14.0107 46.3869 14.0715C46.3261 14.1323 46.2436 14.1664 46.1576 14.1664H33.794C33.708 14.1664 33.6255 14.1323 33.5647 14.0715C33.5039 14.0107 33.4697 13.9282 33.4697 13.8422V1.47854C33.4697 1.39254 33.5039 1.31007 33.5647 1.24927C33.6255 1.18846 33.708 1.1543 33.794 1.1543C33.88 1.1543 33.9624 1.18846 34.0232 1.24927C34.0841 1.31007 34.1182 1.39254 34.1182 1.47854V13.0179Z" fill="black" stroke="black"/>
<path d="M45.8335 13.5291V13.322L45.6871 13.1756L33.8064 1.29493L33.66 1.14849H33.4529H9.0668C8.05978 1.14849 7.094 1.54852 6.38193 2.2606C5.66986 2.97267 5.26982 3.93844 5.26982 4.94546V21.1287C5.26982 21.2146 5.23566 21.2971 5.17486 21.3579C5.11405 21.4187 5.03158 21.4529 4.94558 21.4529C4.85959 21.4529 4.77711 21.4187 4.71631 21.3579C4.6555 21.2971 4.62134 21.2146 4.62134 21.1287V4.94546C4.62134 3.76645 5.0897 2.63573 5.92338 1.80205C6.75707 0.968361 7.88779 0.500001 9.0668 0.500001L33.7941 0.500002L33.795 0.500001C33.8376 0.499924 33.8798 0.508247 33.9192 0.524493C33.9585 0.540709 33.9943 0.564501 34.0244 0.594514C34.0244 0.594569 34.0245 0.594624 34.0246 0.594679L46.3873 12.9574C46.3874 12.9575 46.3875 12.9576 46.3876 12.9577C46.4175 12.9878 46.4413 13.0235 46.4575 13.0628C46.4737 13.1022 46.4821 13.1444 46.482 13.187V13.1879V21.4023C46.482 21.4449 46.4736 21.487 46.4573 21.5264C46.441 21.5657 46.4171 21.6015 46.387 21.6316C46.3569 21.6617 46.3212 21.6856 46.2818 21.7019C46.2425 21.7182 46.2003 21.7265 46.1577 21.7265C46.0718 21.7265 45.9893 21.6924 45.9285 21.6316C45.8677 21.5708 45.8335 21.4883 45.8335 21.4023V13.5291Z" fill="black" stroke="black"/>
<path d="M42.0365 59.4996H9.0668C7.88779 59.4996 6.75707 59.0312 5.92338 58.1975C5.0897 57.3638 4.62134 56.2331 4.62134 55.0541V42.6905C4.62134 42.6045 4.6555 42.522 4.71631 42.4612C4.77712 42.4004 4.85959 42.3662 4.94558 42.3662C5.03157 42.3662 5.11405 42.4004 5.17486 42.4612C5.23566 42.522 5.26982 42.6045 5.26982 42.6905V55.0541C5.26982 56.0611 5.66986 57.0269 6.38193 57.739C7.094 58.451 8.05978 58.8511 9.0668 58.8511H42.0365C43.0436 58.8511 44.0093 58.451 44.7214 57.739C45.4335 57.0269 45.8335 56.0611 45.8335 55.0541V42.6905C45.8335 42.6045 45.8677 42.522 45.9285 42.4612C45.9893 42.4004 46.0718 42.3662 46.1577 42.3662C46.2437 42.3662 46.3262 42.4004 46.387 42.4612C46.4478 42.522 46.482 42.6045 46.482 42.6905V55.0541C46.482 56.2331 46.0136 57.3638 45.1799 58.1975C44.3463 59.0312 43.2155 59.4996 42.0365 59.4996Z" fill="black" stroke="black"/>
<path d="M37.9153 43.0147H13.188C13.102 43.0147 13.0195 42.9805 12.9587 42.9197C12.8979 42.8589 12.8637 42.7764 12.8637 42.6905C12.8637 42.6045 12.8979 42.522 12.9587 42.4612C13.0195 42.4004 13.102 42.3662 13.188 42.3662H37.9153C38.0012 42.3662 38.0837 42.4004 38.1445 42.4612C38.2053 42.522 38.2395 42.6045 38.2395 42.6905C38.2395 42.7764 38.2053 42.8589 38.1445 42.9197C38.0837 42.9805 38.0012 43.0147 37.9153 43.0147Z" stroke="black"/>
<path d="M25.5516 51.2579H13.188C13.102 51.2579 13.0195 51.2237 12.9587 51.1629C12.8979 51.1021 12.8637 51.0196 12.8637 50.9336C12.8637 50.8476 12.8979 50.7652 12.9587 50.7043C13.0195 50.6435 13.102 50.6094 13.188 50.6094H25.5516C25.6376 50.6094 25.7201 50.6435 25.7809 50.7043C25.8417 50.7652 25.8758 50.8476 25.8758 50.9336C25.8758 51.0196 25.8417 51.1021 25.7809 51.1629C25.7201 51.2237 25.6376 51.2579 25.5516 51.2579Z" fill="black" stroke="black"/>
<path d="M46.1578 43.0152H46.1576H4.94546C3.76645 43.0152 2.63573 42.5469 1.80204 41.7132C0.968359 40.8795 0.5 39.7488 0.5 38.5698V25.9044C0.5 24.7254 0.968359 23.5947 1.80204 22.761C2.63573 21.9273 3.76645 21.459 4.94546 21.459H4.97677H4.97843L46.1859 21.7326C46.1862 21.7326 46.1864 21.7326 46.1866 21.7326C47.3598 21.7437 48.4814 22.2166 49.3084 23.0488C50.1355 23.8813 50.6013 25.0061 50.6047 26.1796V38.5698C50.6047 39.1537 50.4897 39.7319 50.2662 40.2713C50.0427 40.8108 49.7151 41.3009 49.3022 41.7137C48.8892 42.1265 48.399 42.4539 47.8594 42.6773C47.3199 42.9006 46.7417 43.0154 46.1578 43.0152ZM49.9546 26.1781L49.9546 26.1766C49.9516 25.1748 49.5539 24.2146 48.8477 23.5041C48.1415 22.7936 47.1836 22.3901 46.1819 22.3811L46.1807 22.3811L4.96856 22.1075V22.1075H4.96524H4.94546C3.93844 22.1075 2.97266 22.5075 2.26059 23.2196C1.54852 23.9316 1.14849 24.8974 1.14849 25.9044V38.5698C1.14849 39.5768 1.54852 40.5426 2.26059 41.2546C2.97266 41.9667 3.93844 42.3667 4.94546 42.3667H46.1576C47.1646 42.3667 48.1304 41.9667 48.8425 41.2546C49.5546 40.5426 49.9546 39.5768 49.9546 38.5698L49.9546 26.1781Z" fill="black" stroke="black"/>
<path d="M15.9848 32.7801V35.7634H15.4006V27.9736H18.5009C19.4503 27.9736 20.0556 28.2126 20.4224 28.5953C20.8197 29.0129 21.0371 29.5698 21.0278 30.1461C21.0185 30.7193 20.7858 31.2661 20.3794 31.67C19.9201 32.0835 19.318 32.3025 18.7001 32.2804L18.6912 32.2801H18.6823H16.4848H15.9848V32.7801ZM15.9848 31.4218V31.9218H16.4848H18.3592C18.9256 31.9218 19.4396 31.782 19.821 31.4265L19.821 31.4266L19.8253 31.4225C20.006 31.2501 20.1477 31.041 20.2408 30.8093C20.332 30.5824 20.3747 30.339 20.366 30.0947C20.3703 29.6268 20.194 29.175 19.8735 28.8336C19.4889 28.4199 18.8778 28.2891 18.2174 28.2891H16.4848H15.9848V28.7891V31.4218Z" fill="black" stroke="black"/>
<path d="M23.8778 34.9694L23.8779 35.4693H24.3778H25.6935C26.1045 35.4742 26.5117 35.3907 26.8876 35.2244C27.2628 35.0584 27.598 34.8138 27.8706 34.5072C28.4773 33.8503 28.739 32.9195 28.7402 31.8037C28.766 30.923 28.5083 30.0574 28.005 29.3342C27.771 28.9868 27.4539 28.7034 27.0825 28.5096C26.7111 28.3159 26.2973 28.218 25.8786 28.2248H24.3761H23.876L23.8761 28.725L23.8778 34.9694ZM23.2491 35.7634V27.9736H25.9966C27.0607 27.9736 27.879 28.3424 28.5016 29.0698C29.1406 29.8162 29.4695 30.7409 29.4695 31.8767C29.4695 33.0136 29.1318 33.9321 28.4754 34.6677C27.8446 35.3746 26.9258 35.7591 25.6415 35.7634H23.2491Z" fill="black" stroke="black"/>
<path d="M33.0671 31.7338H35.658V32.0526H33.0671H32.5671V32.5526V35.7634H31.9367V27.9736H36.4938V28.332H33.0671H32.5671V28.832V31.2338V31.7338H33.0671Z" fill="black" stroke="black"/>
</svg>
