<svg width="3737" height="3455" viewBox="0 0 3737 3455" fill="none" xmlns="http://www.w3.org/2000/svg">
<path d="M1868.81 264.104C929.432 264.104 167.959 1060.86 167.959 2043.74C167.203 2334.2 235.373 2620.7 366.868 2879.7H3370.76C3502.18 2620.84 3570.35 2334.51 3569.67 2044.2C3569.67 1060.86 2808.19 264.104 1868.81 264.104Z" fill="#C1DEE9"/>
<g style="mix-blend-mode:multiply">
<path d="M167.96 2043.74C167.752 2230.1 195.696 2415.42 250.847 2593.43H1060.02L1001.21 2818.19H800.437V2879.7H1790.31V2818.66H1592.53L1556.03 2593.89H1996.41V2879.7H3370.76C3433.6 2756.21 3482.11 2625.93 3515.34 2491.4C3509.09 2480.08 3499.91 2470.63 3488.76 2464.07C3477.61 2457.5 3464.9 2454.05 3451.96 2454.07H3393.35V1931.08H3001.88L2909 2023.95V2453.32H2456.86V2374.64H2451.54V1031.56C2451.54 1020.46 2448 1009.66 2441.43 1000.71C2434.87 991.762 2425.63 985.141 2415.04 981.806V946.804H2153.97L2121.21 979.473H505.387C284.59 1290.32 166.601 1662.46 167.96 2043.74Z" fill="#DAF2FF"/>
<path d="M2488.22 1420.32V1857.15H2891.83V1342.85H2565.7L2488.22 1420.32Z" fill="#DAF2FF"/>
</g>
<path fill-rule="evenodd" clip-rule="evenodd" d="M83.4861 2323.86V975.552C83.4861 961.738 88.9735 948.49 98.7412 938.723C108.509 928.955 121.757 923.468 135.57 923.468H2343.26C2357.08 923.468 2370.32 928.955 2380.09 938.723C2389.86 948.49 2395.35 961.738 2395.35 975.552V2323.86H83.4861Z" fill="#0F3D4A"/>
<path fill-rule="evenodd" clip-rule="evenodd" d="M1534.47 2767.41L1536.99 2764.8L1497.97 2524.63H1007.46L944.46 2764.8L941.846 2767.41H1534.47Z" fill="white" stroke="#BCD9F8" stroke-width="1.13" stroke-miterlimit="10"/>
<path d="M1729.08 2767.41H749.752V2860.38H1729.08V2767.41Z" fill="white" stroke="#BCD9F8" stroke-width="1.13" stroke-miterlimit="10"/>
<path d="M2576.15 2877.73H2" stroke="#5774BE" stroke-width="2.07" stroke-linecap="round" stroke-linejoin="round"/>
<path fill-rule="evenodd" clip-rule="evenodd" d="M2343.26 2532.19H135.57C121.757 2532.19 108.509 2526.7 98.7412 2516.93C88.9735 2507.16 83.4861 2493.92 83.4861 2480.1V2323.85H2395.35V2480.1C2395.35 2493.92 2389.86 2507.16 2380.09 2516.93C2370.32 2526.7 2357.08 2532.19 2343.26 2532.19Z" fill="white" stroke="#BCD9F8" stroke-width="1.13" stroke-miterlimit="10"/>
<path fill-rule="evenodd" clip-rule="evenodd" d="M1290.75 2428.02C1290.75 2438.17 1287.74 2448.1 1282.1 2456.54C1276.46 2464.99 1268.44 2471.57 1259.06 2475.45C1249.68 2479.34 1239.36 2480.35 1229.4 2478.37C1219.44 2476.39 1210.3 2471.5 1203.12 2464.32C1195.94 2457.14 1191.05 2447.99 1189.07 2438.04C1187.08 2428.08 1188.1 2417.76 1191.99 2408.38C1195.87 2398.99 1202.45 2390.98 1210.89 2385.34C1219.34 2379.69 1229.26 2376.68 1239.42 2376.68C1253.03 2376.68 1266.09 2382.09 1275.72 2391.72C1285.35 2401.35 1290.75 2414.41 1290.75 2428.02Z" fill="#0F3D4A"/>
<path d="M2338.5 995.434H140.33V2251.89H2338.5V995.434Z" fill="#E2F2FF"/>
<g style="mix-blend-mode:overlay" opacity="0.6">
<path d="M857 995.433L140.33 1712.2V2251.98H301.903L1558.36 995.433H857Z" fill="white"/>
<path d="M2271.86 995.433H1707.05L450.501 2251.98H1015.4L2271.86 995.433Z" fill="white"/>
<path d="M2338.5 1446.64V1077.48L1164 2251.98H1533.25L2338.5 1446.64Z" fill="white"/>
</g>
<path d="M832.171 1760.27H1646.66C1661.51 1760.27 1675.76 1754.37 1686.26 1743.86C1696.77 1733.36 1702.67 1719.12 1702.67 1704.26V1150.19C1702.67 1135.34 1696.77 1121.09 1686.26 1110.59C1675.76 1100.09 1661.51 1094.19 1646.66 1094.19H1430.11L1357.21 1184.91H832.171C817.318 1184.91 803.073 1190.82 792.57 1201.32C782.067 1211.82 776.167 1226.07 776.167 1240.92V1704.17C776.155 1711.53 777.594 1718.82 780.403 1725.63C783.212 1732.43 787.335 1738.62 792.537 1743.83C797.739 1749.04 803.917 1753.17 810.718 1755.99C817.519 1758.81 824.809 1760.27 832.171 1760.27Z" fill="#DCB650"/>
<path d="M1628.09 1217.21H850.746C822.6 1217.21 799.782 1240.03 799.782 1268.17V1715.55C799.782 1743.7 822.6 1766.52 850.746 1766.52H1628.09C1656.23 1766.52 1679.05 1743.7 1679.05 1715.55V1268.17C1679.05 1240.03 1656.23 1217.21 1628.09 1217.21Z" fill="white"/>
<path d="M1762.96 1347.79H1520.75V1085.69L1567.23 1039.21H1762.96V1347.79Z" fill="white" stroke="#E5F0F6" stroke-width="0.89" stroke-miterlimit="10"/>
<path d="M1734.78 1124.15H1548.84V1134.32H1734.78V1124.15Z" fill="#D0D0D0"/>
<path d="M1734.78 1149.91H1548.84V1160.18H1734.78V1149.91Z" fill="#D0D0D0"/>
<path d="M1734.78 1175.67H1548.84V1185.84H1734.78V1175.67Z" fill="#D0D0D0"/>
<path d="M1734.78 1072.44H1548.84V1082.61H1734.78V1072.44Z" fill="#D0D0D0"/>
<path d="M1734.78 1098.2H1548.84V1108.37H1734.78V1098.2Z" fill="#D0D0D0"/>
<path d="M1734.78 1201.43H1548.84V1211.7H1734.78V1201.43Z" fill="#D0D0D0"/>
<path d="M1734.78 1227.1H1548.84V1237.27H1734.78V1227.1Z" fill="#D0D0D0"/>
<path d="M1734.78 1252.87H1548.84V1263.04H1734.78V1252.87Z" fill="#D0D0D0"/>
<path d="M1734.78 1278.63H1548.84V1288.8H1734.78V1278.63Z" fill="#D0D0D0"/>
<path d="M1734.78 1304.39H1548.84V1314.56H1734.78V1304.39Z" fill="#D0D0D0"/>
<path d="M1567.23 1085.69H1520.75L1567.23 1039.21V1085.69Z" fill="#D3E8F9"/>
<path d="M832.171 1823.37H1646.66C1661.52 1823.37 1675.76 1817.47 1686.26 1806.96C1696.77 1796.46 1702.67 1782.21 1702.67 1767.36V1213.2C1702.67 1198.34 1696.77 1184.1 1686.26 1173.6C1675.76 1163.09 1661.52 1157.19 1646.66 1157.19H1430.11L1357.21 1247.92H832.171C817.318 1247.92 803.073 1253.82 792.57 1264.32C782.067 1274.83 776.167 1289.07 776.167 1303.92V1767.27C776.155 1774.63 777.594 1781.92 780.403 1788.73C783.212 1795.53 787.335 1801.72 792.537 1806.93C797.739 1812.14 803.917 1816.27 810.718 1819.09C817.519 1821.91 824.809 1823.37 832.171 1823.37Z" fill="#E9D457"/>
<path d="M1618.47 1727.04V1900.84L1669.53 1856.87L1742.8 1848.47L1618.47 1727.04Z" fill="#313D65"/>
<path d="M1659.22 1794.92L1638.78 1802.62L1703.17 1973.46L1723.61 1965.76L1659.22 1794.92Z" fill="#313D65"/>
<path d="M1618.47 1628.94C1623.76 1650.4 1623.76 1672.82 1618.47 1694.28C1615.66 1683.68 1614.34 1672.75 1614.55 1661.79C1614.35 1650.71 1615.67 1639.66 1618.47 1628.94Z" fill="#313D65"/>
<path d="M1716.39 1727.03C1695.08 1732.26 1672.82 1732.26 1651.52 1727.03C1662.11 1724.21 1673.04 1722.9 1684 1723.11C1694.92 1722.94 1705.82 1724.26 1716.39 1727.03Z" fill="#313D65"/>
<path d="M1585.43 1727.03C1563.97 1732.32 1541.55 1732.32 1520.09 1727.03C1530.68 1724.21 1541.62 1722.9 1552.58 1723.11C1563.65 1722.91 1574.71 1724.23 1585.43 1727.03Z" fill="#313D65"/>
<path d="M1687.73 1657.78C1682.2 1667.21 1675.42 1675.84 1667.57 1683.45C1659.95 1691.32 1651.28 1698.11 1641.81 1703.61C1647.37 1694.2 1654.14 1685.57 1661.97 1677.94C1669.61 1670.09 1678.27 1663.3 1687.73 1657.78Z" fill="#313D65"/>
<path d="M1595.05 1750.28C1583.7 1769.06 1567.98 1784.82 1549.21 1796.2C1554.72 1786.73 1561.5 1778.06 1569.38 1770.44C1577 1762.62 1585.64 1755.84 1595.05 1750.28Z" fill="#313D65"/>
<path d="M1595.05 1703.61C1585.62 1698.08 1576.98 1691.3 1569.38 1683.45C1561.5 1675.86 1554.72 1667.22 1549.21 1657.78C1558.66 1663.28 1567.3 1670.07 1574.88 1677.94C1582.74 1685.54 1589.52 1694.18 1595.05 1703.61Z" fill="#313D65"/>
<path d="M994.304 2000.15H1022.31V2016.11H977.41V1904.1H994.304V2000.15Z" fill="#313D65"/>
<path d="M1085.97 1931.08V1989.51C1086.18 1993.23 1085.64 1996.95 1084.36 2000.46C1083.09 2003.96 1081.12 2007.16 1078.56 2009.87C1076 2012.58 1072.92 2014.74 1069.5 2016.22C1066.08 2017.69 1062.39 2018.46 1058.66 2018.46C1054.94 2018.46 1051.25 2017.69 1047.83 2016.22C1044.41 2014.74 1041.32 2012.58 1038.77 2009.87C1036.21 2007.16 1034.24 2003.96 1032.96 2000.46C1031.69 1996.95 1031.14 1993.23 1031.36 1989.51V1931.08C1031.14 1927.36 1031.69 1923.63 1032.96 1920.13C1034.24 1916.63 1036.21 1913.43 1038.77 1910.72C1041.32 1908.01 1044.41 1905.85 1047.83 1904.37C1051.25 1902.89 1054.94 1902.13 1058.66 1902.13C1062.39 1902.13 1066.08 1902.89 1069.5 1904.37C1072.92 1905.85 1076 1908.01 1078.56 1910.72C1081.12 1913.43 1083.09 1916.63 1084.36 1920.13C1085.64 1923.63 1086.18 1927.36 1085.97 1931.08ZM1048.63 1931.08V1989.14C1048.63 1997.44 1052.27 2001.92 1058.99 2001.92C1065.71 2001.92 1069.35 1997.44 1069.35 1989.14V1931.08C1069.35 1922.77 1065.71 1918.29 1058.99 1918.29C1052.27 1918.29 1048.26 1922.96 1048.26 1931.27L1048.63 1931.08Z" fill="#313D65"/>
<path d="M1155.69 2016.11H1138.42L1134.78 1990.72H1116.11L1112.47 2016.11H1095.49L1114.81 1904.1H1136.37L1155.69 2016.11ZM1125.17 1928.37L1118.35 1975.04H1132.54L1125.73 1928.37H1125.17Z" fill="#313D65"/>
<path d="M1220.19 1932.66V1987.83C1220.62 1991.61 1220.19 1995.44 1218.94 1999.04C1217.68 2002.63 1215.64 2005.89 1212.94 2008.59C1210.25 2011.28 1206.99 2013.33 1203.39 2014.58C1199.8 2015.84 1195.97 2016.26 1192.19 2015.83H1167.92V1903.82H1192.19C1196.05 1903.36 1199.96 1903.8 1203.63 1905.1C1207.29 1906.4 1210.61 1908.53 1213.32 1911.32C1216.03 1914.11 1218.06 1917.49 1219.25 1921.19C1220.44 1924.89 1220.76 1928.82 1220.19 1932.66ZM1184.72 1920.06V2000.43H1191.44C1199.56 2000.43 1203.2 1996.14 1203.2 1986.71V1933.78C1203.2 1924.45 1199.56 1920.06 1191.44 1920.06H1184.72Z" fill="#313D65"/>
<path d="M1253.51 2016.11H1236.62V1904.1H1253.51V2016.11Z" fill="#313D65"/>
<path d="M1326.78 2016.11H1310.17L1288.05 1942.09V2016.11H1271.43V1904.1H1290.1L1310.08 1970.65V1904.1H1326.04L1326.78 2016.11Z" fill="#313D65"/>
<path d="M1396.23 1929.58V1936.96L1379.99 1937.8V1931.08C1379.99 1921.74 1376.63 1918.2 1370.09 1918.2C1363.56 1918.2 1360.2 1922.12 1360.2 1929.49V1990.44C1360.2 1997.82 1363.37 2001.83 1369.53 2001.83C1375.69 2001.83 1378.87 1997.82 1378.87 1988.86V1970.19H1369.53V1954.51H1395.67V1991.1C1395.67 1998.13 1392.88 2004.87 1387.91 2009.84C1382.93 2014.81 1376.19 2017.6 1369.16 2017.6C1362.13 2017.6 1355.39 2014.81 1350.42 2009.84C1345.44 2004.87 1342.65 1998.13 1342.65 1991.1V1929.77C1342.65 1922.74 1345.44 1916 1350.42 1911.03C1355.39 1906.06 1362.13 1903.26 1369.16 1903.26C1376.19 1903.26 1382.93 1906.06 1387.91 1911.03C1392.88 1916 1395.67 1922.74 1395.67 1929.77L1396.23 1929.58Z" fill="#313D65"/>
<path d="M1429.27 2016.11H1411.44V1998.28H1429.37L1429.27 2016.11Z" fill="#313D65"/>
<path d="M1465.3 2016.11H1447.47V1998.28H1465.3V2016.11Z" fill="#313D65"/>
<path d="M1501.42 2016.11H1483.5V1998.28H1501.42V2016.11Z" fill="#313D65"/>
<path d="M854.014 2181.23C842.255 2181.23 830.978 2176.56 822.663 2168.25C814.348 2159.93 809.677 2148.66 809.677 2136.9C809.677 2125.14 814.348 2113.86 822.663 2105.55C830.978 2097.23 842.255 2092.56 854.014 2092.56H1624.82C1636.58 2092.56 1647.86 2097.23 1656.17 2105.55C1664.49 2113.86 1669.16 2125.14 1669.16 2136.9C1669.16 2148.66 1664.49 2159.93 1656.17 2168.25C1647.86 2176.56 1636.58 2181.23 1624.82 2181.23H854.014Z" fill="white"/>
<path d="M1624.82 2096.1C1630.18 2096.1 1635.48 2097.15 1640.43 2099.2C1645.38 2101.25 1649.88 2104.26 1653.66 2108.05C1657.45 2111.83 1660.46 2116.33 1662.51 2121.28C1664.56 2126.23 1665.61 2131.53 1665.61 2136.89C1665.61 2142.25 1664.56 2147.55 1662.51 2152.5C1660.46 2157.45 1657.45 2161.94 1653.66 2165.73C1649.88 2169.52 1645.38 2172.52 1640.43 2174.57C1635.48 2176.62 1630.18 2177.68 1624.82 2177.68H854.014C848.657 2177.68 843.353 2176.62 838.404 2174.57C833.455 2172.52 828.959 2169.52 825.171 2165.73C821.383 2161.94 818.379 2157.45 816.329 2152.5C814.279 2147.55 813.224 2142.25 813.224 2136.89C813.224 2131.53 814.279 2126.23 816.329 2121.28C818.379 2116.33 821.383 2111.83 825.171 2108.05C828.959 2104.26 833.455 2101.25 838.404 2099.2C843.353 2097.15 848.657 2096.1 854.014 2096.1H1624.82ZM1624.82 2089H854.014C841.314 2089 829.135 2094.05 820.155 2103.03C811.175 2112.01 806.13 2124.19 806.13 2136.89C806.13 2149.59 811.175 2161.77 820.155 2170.75C829.135 2179.73 841.314 2184.77 854.014 2184.77H1624.82C1637.52 2184.77 1649.7 2179.73 1658.68 2170.75C1667.66 2161.77 1672.7 2149.59 1672.7 2136.89C1672.7 2124.19 1667.66 2112.01 1658.68 2103.03C1649.7 2094.05 1637.52 2089 1624.82 2089Z" fill="#0F3D4A"/>
<path d="M1162.41 2096.11H854.386C849.03 2096.11 843.726 2097.16 838.777 2099.21C833.828 2101.26 829.331 2104.27 825.544 2108.05C821.756 2111.84 818.751 2116.34 816.701 2121.29C814.651 2126.23 813.596 2131.54 813.596 2136.9C813.596 2142.25 814.651 2147.56 816.701 2152.5C818.751 2157.45 821.756 2161.95 825.544 2165.74C829.331 2169.53 833.828 2172.53 838.777 2174.58C843.726 2176.63 849.03 2177.69 854.386 2177.69H1162.41V2096.11Z" fill="#0F3D4A"/>
<path d="M2012.46 2397.22H3395.96C3415.07 2397.22 3433.4 2404.81 3446.91 2418.33C3460.43 2431.84 3468.02 2450.17 3468.02 2469.28V3338.84H1940.41V2469C1940.48 2449.94 1948.1 2431.68 1961.61 2418.23C1975.12 2404.77 1993.4 2397.22 2012.46 2397.22Z" fill="#0F3D4A"/>
<path d="M2068.19 2463.49H3340.24C3356.57 2463.49 3372.24 2469.98 3383.8 2481.53C3395.35 2493.09 3401.84 2508.75 3401.84 2525.09V3272.66H2006.68V2525C2006.7 2508.69 2013.19 2493.06 2024.72 2481.53C2036.25 2470 2051.88 2463.51 2068.19 2463.49Z" fill="#E2F2FF"/>
<g style="mix-blend-mode:overlay" opacity="0.6">
<path d="M3267.71 2463.49H2957.17L2148 3272.66H2458.54L3267.71 2463.49Z" fill="white"/>
<path d="M2489.81 2463.49L2006.68 2946.62V3272.66H2066.23L2875.4 2463.49H2489.81Z" fill="white"/>
<path d="M3401.75 2614.14V2525C3401.75 2510.15 3396.39 2495.8 3386.65 2484.6C3376.9 2473.4 3363.43 2466.1 3348.73 2464.04L2540.31 3272.66H2743.23L3401.75 2614.14Z" fill="white"/>
</g>
<path d="M2453.5 2945.04H2954.93C2964.08 2945.04 2972.87 2941.4 2979.35 2934.92C2985.82 2928.45 2989.46 2919.66 2989.46 2910.5V2568.97C2989.46 2559.81 2985.82 2551.03 2979.35 2544.55C2972.87 2538.07 2964.08 2534.43 2954.93 2534.43H2821.54L2776.74 2590.44H2453.5C2444.34 2590.44 2435.56 2594.08 2429.08 2600.55C2422.6 2607.03 2418.96 2615.81 2418.96 2624.97V2910.22C2418.93 2914.78 2419.79 2919.3 2421.51 2923.53C2423.23 2927.75 2425.77 2931.59 2428.98 2934.82C2432.19 2938.06 2436.01 2940.63 2440.22 2942.38C2444.43 2944.14 2448.94 2945.04 2453.5 2945.04Z" fill="#DCB650"/>
<path d="M2943.54 2610.32H2464.89C2447.57 2610.32 2433.52 2624.36 2433.52 2641.68V2917.13C2433.52 2934.45 2447.57 2948.49 2464.89 2948.49H2943.54C2960.86 2948.49 2974.9 2934.45 2974.9 2917.13V2641.68C2974.9 2624.36 2960.86 2610.32 2943.54 2610.32Z" fill="white"/>
<path d="M2453.5 2983.5H2954.92C2964.08 2983.5 2972.87 2979.86 2979.34 2973.38C2985.82 2966.9 2989.46 2958.12 2989.46 2948.96V2607.8C2989.46 2598.64 2985.82 2589.86 2979.34 2583.38C2972.87 2576.9 2964.08 2573.26 2954.92 2573.26H2821.54L2776.74 2629.27H2453.5C2444.34 2629.27 2435.55 2632.91 2429.08 2639.38C2422.6 2645.86 2418.96 2654.65 2418.96 2663.8V2949.05C2418.99 2958.2 2422.64 2966.96 2429.11 2973.41C2435.58 2979.87 2444.35 2983.5 2453.5 2983.5Z" fill="#E9D457"/>
<path d="M2466.94 3203.87C2463.22 3204.09 2459.5 3203.55 2455.99 3202.27C2452.49 3201 2449.29 3199.02 2446.58 3196.47C2443.87 3193.91 2441.71 3190.83 2440.23 3187.41C2438.76 3183.98 2437.99 3180.3 2437.99 3176.57C2437.99 3172.85 2438.76 3169.16 2440.23 3165.74C2441.71 3162.32 2443.87 3159.23 2446.58 3156.68C2449.29 3154.12 2452.49 3152.14 2455.99 3150.87C2459.5 3149.6 2463.22 3149.05 2466.94 3149.27H2941.58C2948.54 3149.68 2955.09 3152.73 2959.87 3157.81C2964.66 3162.88 2967.33 3169.6 2967.33 3176.57C2967.33 3183.55 2964.66 3190.26 2959.87 3195.34C2955.09 3200.41 2948.54 3203.47 2941.58 3203.87H2466.94Z" fill="#198754"/>
<path d="M2941.58 3151.41C2948.24 3151.41 2954.62 3154.06 2959.33 3158.77C2964.04 3163.48 2966.69 3169.86 2966.69 3176.52C2966.69 3183.18 2964.04 3189.57 2959.33 3194.28C2954.62 3198.98 2948.24 3201.63 2941.58 3201.63H2466.94C2460.28 3201.63 2453.89 3198.98 2449.19 3194.28C2444.48 3189.57 2441.83 3183.18 2441.83 3176.52C2441.83 3169.86 2444.48 3163.48 2449.19 3158.77C2453.89 3154.06 2460.28 3151.41 2466.94 3151.41H2941.58ZM2941.58 3147.12H2466.94C2462.93 3146.89 2458.92 3147.49 2455.15 3148.87C2451.38 3150.24 2447.94 3152.38 2445.02 3155.13C2442.1 3157.89 2439.78 3161.21 2438.19 3164.9C2436.6 3168.58 2435.79 3172.55 2435.79 3176.57C2435.79 3180.58 2436.6 3184.55 2438.19 3188.24C2439.78 3191.92 2442.1 3195.25 2445.02 3198C2447.94 3200.76 2451.38 3202.89 2455.15 3204.27C2458.92 3205.65 2462.93 3206.24 2466.94 3206.02H2941.58C2949.1 3205.59 2956.18 3202.31 2961.35 3196.83C2966.53 3191.35 2969.41 3184.1 2969.41 3176.57C2969.41 3169.03 2966.53 3161.78 2961.35 3156.31C2956.18 3150.83 2949.1 3147.54 2941.58 3147.12Z" fill="#198754" fill-opacity="0.466667"/>
<path d="M2656.8 3151.41H2466.94C2460.28 3151.41 2453.89 3154.06 2449.19 3158.77C2444.48 3163.47 2441.83 3169.86 2441.83 3176.52C2441.83 3183.18 2444.48 3189.57 2449.19 3194.27C2453.89 3198.98 2460.28 3201.63 2466.94 3201.63H2656.8V3151.41Z" fill="#198754"/>
<path d="M3526.17 3453H1882.35C1829.24 3453 1786.21 3391.95 1786.21 3338.84H3622.22C3622.22 3391.95 3579.19 3453 3526.17 3453Z" fill="#0F3D4A"/>
<path d="M3735.63 3453H1672.8" stroke="#5774BE" stroke-width="2.07" stroke-linecap="round" stroke-linejoin="round"/>
<path d="M3337.34 2492.24H2853V1967.94L2945.87 1875.07H3337.34V2492.24Z" fill="white" stroke="#E5F0F6" stroke-width="0.89" stroke-miterlimit="10"/>
<path d="M3281.06 2044.95H2909.19V2065.39H3281.06V2044.95Z" fill="#D0D0D0"/>
<path d="M3281.06 2096.38H2909.19V2116.82H3281.06V2096.38Z" fill="#D0D0D0"/>
<path d="M3281.06 2147.91H2909.19V2168.35H3281.06V2147.91Z" fill="#D0D0D0"/>
<path d="M3281.06 1941.44H2909.19V1961.88H3281.06V1941.44Z" fill="#D0D0D0"/>
<path d="M3281.06 1992.97H2909.19V2013.41H3281.06V1992.97Z" fill="#D0D0D0"/>
<path d="M3281.06 2199.34H2909.19V2219.78H3281.06V2199.34Z" fill="#D0D0D0"/>
<path d="M3281.06 2250.87H2909.19V2271.31H3281.06V2250.87Z" fill="#D0D0D0"/>
<path d="M3281.06 2302.38H2909.19V2322.83H3281.06V2302.38Z" fill="#D0D0D0"/>
<path d="M3281.06 2353.81H2909.19V2374.26H3281.06V2353.81Z" fill="#D0D0D0"/>
<path d="M3281.06 2405.34H2909.19V2425.78H3281.06V2405.34Z" fill="#D0D0D0"/>
<path d="M2945.87 1967.94H2853L2945.87 1875.07V1967.94Z" fill="#D3E8F9"/>
<path d="M2835.82 1801.15H2432.22V1364.31L2509.69 1286.84H2835.82V1801.15Z" fill="white" stroke="#E5F0F6" stroke-width="0.89" stroke-miterlimit="10"/>
<path d="M2788.96 1428.44H2479.07V1445.43H2788.96V1428.44Z" fill="#D0D0D0"/>
<path d="M2788.96 1471.28H2479.07V1488.27H2788.96V1471.28Z" fill="#D0D0D0"/>
<path d="M2788.96 1514.22H2479.07V1531.21H2788.96V1514.22Z" fill="#D0D0D0"/>
<path d="M2788.96 1342.19H2479.07V1359.18H2788.96V1342.19Z" fill="#D0D0D0"/>
<path d="M2788.96 1385.13H2479.07V1402.12H2788.96V1385.13Z" fill="#D0D0D0"/>
<path d="M2788.96 1557.15H2479.07V1574.14H2788.96V1557.15Z" fill="#D0D0D0"/>
<path d="M2788.96 1600H2479.07V1616.98H2788.96V1600Z" fill="#D0D0D0"/>
<path d="M2788.96 1642.94H2479.07V1660.02H2788.96V1642.94Z" fill="#D0D0D0"/>
<path d="M2788.96 1685.87H2479.07V1702.86H2788.96V1685.87Z" fill="#D0D0D0"/>
<path d="M2788.96 1728.71H2479.07V1745.79H2788.96V1728.71Z" fill="#D0D0D0"/>
<path d="M2509.69 1364.31H2432.22L2509.69 1286.84V1364.31Z" fill="#D3E8F9"/>
<path d="M2358.85 1302.33H2035.99V952.865L2097.96 890.98H2358.85V1302.33Z" fill="white" stroke="#E5F0F6" stroke-width="0.89" stroke-miterlimit="10"/>
<path d="M2321.42 1004.2H2073.51V1017.83H2321.42V1004.2Z" fill="#D0D0D0"/>
<path d="M2321.42 1038.56H2073.51V1052.19H2321.42V1038.56Z" fill="#D0D0D0"/>
<path d="M2321.42 1072.81H2073.51V1086.44H2321.42V1072.81Z" fill="#D0D0D0"/>
<path d="M2321.42 935.227H2073.51V948.854H2321.42V935.227Z" fill="#D0D0D0"/>
<path d="M2321.42 969.573H2073.51V983.201H2321.42V969.573Z" fill="#D0D0D0"/>
<path d="M2321.42 1107.16H2073.51V1120.79H2321.42V1107.16Z" fill="#D0D0D0"/>
<path d="M2321.42 1141.51H2073.51V1155.13H2321.42V1141.51Z" fill="#D0D0D0"/>
<path d="M2321.42 1175.76H2073.51V1189.39H2321.42V1175.76Z" fill="#D0D0D0"/>
<path d="M2321.42 1210.12H2073.51V1223.74H2321.42V1210.12Z" fill="#D0D0D0"/>
<path d="M2321.42 1244.46H2073.51V1258.09H2321.42V1244.46Z" fill="#D0D0D0"/>
<path d="M2097.96 952.865H2035.99L2097.96 890.98V952.865Z" fill="#D3E8F9"/>
<path d="M1501.42 522.286V602.092" stroke="white" stroke-width="1.5" stroke-linecap="round" stroke-linejoin="round"/>
<path d="M1501.42 703.835V783.641" stroke="white" stroke-width="1.5" stroke-linecap="round" stroke-linejoin="round"/>
<path d="M1632.1 652.963H1552.29" stroke="white" stroke-width="1.5" stroke-linecap="round" stroke-linejoin="round"/>
<path d="M1450.55 652.963H1370.75" stroke="white" stroke-width="1.5" stroke-linecap="round" stroke-linejoin="round"/>
<path d="M1593.83 560.552L1537.36 617.023" stroke="white" stroke-width="1.5" stroke-linecap="round" stroke-linejoin="round"/>
<path d="M1465.39 688.995L1409.02 745.373" stroke="white" stroke-width="1.5" stroke-linecap="round" stroke-linejoin="round"/>
<path d="M1593.83 745.373L1537.36 688.995" stroke="white" stroke-width="1.5" stroke-linecap="round" stroke-linejoin="round"/>
<path d="M1465.39 617.023L1409.02 560.552" stroke="white" stroke-width="1.5" stroke-linecap="round" stroke-linejoin="round"/>
<path d="M3189.3 1296.55V1376.35" stroke="#94B7F7" stroke-width="1.5" stroke-linecap="round" stroke-linejoin="round"/>
<path d="M3189.3 1478.1V1557.9" stroke="#94B7F7" stroke-width="1.5" stroke-linecap="round" stroke-linejoin="round"/>
<path d="M3319.98 1427.22H3240.17" stroke="#94B7F7" stroke-width="1.5" stroke-linecap="round" stroke-linejoin="round"/>
<path d="M3138.43 1427.22H3058.63" stroke="#94B7F7" stroke-width="1.5" stroke-linecap="round" stroke-linejoin="round"/>
<path d="M3281.71 1334.81L3225.24 1391.19" stroke="#94B7F7" stroke-width="1.5" stroke-linecap="round" stroke-linejoin="round"/>
<path d="M3153.27 1463.16L3096.9 1519.63" stroke="#94B7F7" stroke-width="1.5" stroke-linecap="round" stroke-linejoin="round"/>
<path d="M3281.71 1519.63L3225.24 1463.16" stroke="#94B7F7" stroke-width="1.5" stroke-linecap="round" stroke-linejoin="round"/>
<path d="M3153.27 1391.19L3096.9 1334.81" stroke="#94B7F7" stroke-width="1.5" stroke-linecap="round" stroke-linejoin="round"/>
<path d="M2113.37 106.639V110.373H2224.07C2225.11 110.368 2226.12 110.77 2226.87 111.493C2227.21 111.778 2227.49 112.134 2227.68 112.537C2227.88 112.939 2227.98 113.38 2227.99 113.827C2227.99 114.288 2227.89 114.745 2227.7 115.164C2227.5 115.583 2227.22 115.955 2226.87 116.254C2226.12 116.977 2225.11 117.378 2224.07 117.374H2109.54C2108.5 117.378 2107.49 116.977 2106.74 116.254C2106.39 115.955 2106.1 115.583 2105.91 115.164C2105.72 114.745 2105.62 114.288 2105.62 113.827V5.45813C2105.62 4.99649 2105.72 4.54018 2105.91 4.12103C2106.1 3.70188 2106.39 3.33 2106.74 3.03129C2107.49 2.3081 2108.5 1.90632 2109.54 1.91118C2110.58 1.92501 2111.58 2.32414 2112.34 3.03129C2112.68 3.33468 2112.95 3.7097 2113.12 4.12936C2113.3 4.54902 2113.38 5.00285 2113.37 5.45813V106.639Z" fill="#283F4B" stroke="#283F4B"/>
<path d="M2196.16 527.513H1890.65C1878.61 527.588 1867.01 523.007 1858.26 514.725C1854.06 510.807 1850.69 506.07 1848.38 500.806C1846.07 495.541 1844.86 489.859 1844.82 484.109V375.834C1844.83 374.872 1845.04 373.922 1845.42 373.04C1845.81 372.158 1846.37 371.363 1847.06 370.7C1848.56 369.374 1850.48 368.643 1852.48 368.647C1854.48 368.625 1856.41 369.358 1857.89 370.7C1858.59 371.363 1859.15 372.158 1859.53 373.04C1859.92 373.922 1860.12 374.872 1860.13 375.834V484.296C1860.19 488.163 1861.05 491.976 1862.66 495.494C1864.26 499.012 1866.58 502.16 1869.47 504.738C1875.3 510.226 1883.02 513.266 1891.03 513.232H2196.53C2204.54 513.266 2212.26 510.226 2218.09 504.738C2220.98 502.16 2223.29 499.012 2224.9 495.494C2226.51 491.976 2227.37 488.163 2227.43 484.296V375.834C2227.44 374.872 2227.64 373.922 2228.03 373.04C2228.41 372.158 2228.97 371.363 2229.67 370.7C2231.16 369.374 2233.09 368.643 2235.08 368.647C2237.08 368.625 2239.01 369.358 2240.5 370.7C2241.19 371.363 2241.75 372.158 2242.14 373.04C2242.52 373.922 2242.72 374.872 2242.74 375.834V484.296C2242.7 490.046 2241.49 495.727 2239.18 500.992C2236.87 506.257 2233.5 510.994 2229.29 514.912C2220.34 523.307 2208.43 527.834 2196.16 527.513Z" fill="#283F4B"/>
<path d="M2219.77 112.894V111.214L2218.65 110.094L2110.1 8.72627L2109.07 7.69955H1885.05C1876.22 7.67044 1867.71 11.0083 1861.25 17.0336C1858.1 19.8976 1855.58 23.3836 1853.85 27.2715C1852.11 31.1593 1851.2 35.3647 1851.17 39.622V177.766C1851.17 178.191 1851.08 178.611 1850.9 178.997C1850.72 179.383 1850.47 179.727 1850.15 180.006C1849.41 180.681 1848.44 181.049 1847.44 181.033C1846.41 181.054 1845.41 180.687 1844.64 180.006C1844.02 179.422 1843.65 178.618 1843.61 177.766V39.5287C1843.67 34.434 1844.76 29.4041 1846.83 24.7489C1848.9 20.0937 1851.9 15.9115 1855.65 12.4599C1863.66 5.08066 1874.17 1.01135 1885.05 1.07234H2110.85C2111.37 0.975887 2111.91 0.975887 2112.43 1.07234C2112.87 1.26572 2113.28 1.5169 2113.65 1.81908L2226.4 107.481C2226.68 107.832 2226.93 108.206 2227.15 108.601C2227.23 108.969 2227.23 109.352 2227.15 109.721V179.913C2227.23 180.282 2227.23 180.664 2227.15 181.033C2226.95 181.441 2226.7 181.818 2226.4 182.153L2225.09 182.9C2224.6 182.998 2224.09 182.998 2223.6 182.9C2222.57 182.921 2221.57 182.554 2220.8 181.873C2220.18 181.289 2219.81 180.485 2219.77 179.633V112.894Z" fill="#283F4B"/>
<path d="M2226.4 182.153C2226.7 181.818 2226.95 181.441 2227.15 181.033C2227.23 180.664 2227.23 180.282 2227.15 179.913V109.721C2227.23 109.352 2227.23 108.969 2227.15 108.601C2226.93 108.206 2226.68 107.832 2226.4 107.481L2113.65 1.81908C2113.28 1.5169 2112.87 1.26572 2112.43 1.07234C2111.91 0.975887 2111.37 0.975887 2110.85 1.07234H1885.05C1874.17 1.01135 1863.66 5.08066 1855.65 12.4599C1851.9 15.9115 1848.9 20.0937 1846.83 24.7489C1844.76 29.4041 1843.67 34.434 1843.61 39.5287V177.766C1843.65 178.618 1844.02 179.422 1844.64 180.006C1845.41 180.687 1846.41 181.054 1847.44 181.033C1848.44 181.049 1849.41 180.681 1850.15 180.006C1850.47 179.727 1850.72 179.383 1850.9 178.997C1851.08 178.611 1851.17 178.191 1851.17 177.766V39.622C1851.2 35.3647 1852.11 31.1593 1853.85 27.2715C1855.58 23.3836 1858.1 19.8976 1861.25 17.0336C1867.71 11.0083 1876.22 7.67044 1885.05 7.69955H2109.07L2110.1 8.72627L2218.65 110.094L2219.77 111.214V112.894V179.633C2219.81 180.485 2220.18 181.289 2220.8 181.873M2226.4 182.153L2228.92 184.86M2226.4 182.153L2225.09 182.9C2224.6 182.998 2224.09 182.998 2223.6 182.9C2222.57 182.921 2221.57 182.554 2220.8 181.873M2220.8 181.873L2218.28 184.58" stroke="#283F4B"/>
<path d="M2226.37 159.613L1844.43 162.28C1823.76 162.424 1807.12 179.298 1807.26 199.97L1808.21 335.03C1808.35 355.702 1825.23 372.342 1845.9 372.198L2227.84 369.531C2248.51 369.387 2265.15 352.513 2265 331.841L2264.06 196.781C2263.92 176.109 2247.04 159.469 2226.37 159.613Z" fill="#283F4B"/>
<path d="M1940.5 272.788V302.004H1932.38V226.491H1964.11C1967.66 226.163 1971.23 226.538 1974.62 227.595C1978.02 228.653 1981.17 230.371 1983.9 232.652C1985.92 234.643 1987.51 237.023 1988.59 239.647C1989.66 242.271 1990.19 245.085 1990.15 247.919C1990.1 250.754 1989.49 253.55 1988.33 256.14C1987.18 258.729 1985.51 261.059 1983.44 262.987C1978.6 267.155 1972.36 269.325 1965.98 269.055H1940.5V272.788ZM1940.5 260V263.734H1962.71C1967.62 264.037 1972.45 262.469 1976.25 259.347C1977.92 257.836 1979.25 255.992 1980.17 253.933C1981 251.891 1981.38 249.695 1981.29 247.493C1981.32 243.271 1979.67 239.21 1976.72 236.199C1974.6 234.4 1972.15 233.044 1969.51 232.21C1966.86 231.376 1964.08 231.082 1961.31 231.345H1940.5V260Z" fill="white" stroke="white"/>
<path d="M2018.16 293.506V297.24H2034.87C2038.75 297.345 2042.61 296.579 2046.16 294.999C2049.68 293.512 2052.85 291.32 2055.49 288.559C2061.44 281.637 2064.43 272.65 2063.8 263.544C2064.05 255.372 2061.56 247.351 2056.71 240.768C2054.51 237.572 2051.52 235 2048.03 233.301C2044.55 231.581 2040.71 230.717 2036.83 230.781H2018.16V293.506ZM2009.57 302V226.487H2037.57C2042.38 226.25 2047.18 227.091 2051.62 228.949C2056.06 230.806 2060.03 233.632 2063.24 237.222C2069.67 244.736 2073.01 254.411 2072.58 264.29C2072.87 274.253 2069.25 283.935 2062.49 291.266C2058.73 295.002 2054.2 297.892 2049.23 299.743C2044.26 301.594 2038.95 302.363 2033.65 302H2009.57Z" fill="white" stroke="white"/>
<path d="M2104.5 261.964H2130.17V266.911H2100.48V302.007H2092.83V226.494H2138.66V231.815H2101.32V261.964H2104.5Z" fill="white" stroke="white"/>
<path d="M2681.72 322.166V326.273H2786.26C2787.08 326.293 2787.87 326.589 2788.5 327.113C2788.74 327.356 2788.94 327.648 2789.07 327.969C2789.19 328.29 2789.25 328.634 2789.24 328.98C2789.25 329.311 2789.18 329.639 2789.05 329.944C2788.93 330.249 2788.74 330.524 2788.5 330.753C2787.89 331.315 2787.09 331.617 2786.26 331.594H2678.73C2678.32 331.616 2677.91 331.552 2677.52 331.408C2677.14 331.263 2676.78 331.04 2676.49 330.753C2675.99 330.294 2675.69 329.658 2675.65 328.98V227.425C2675.65 227.087 2675.73 226.752 2675.87 226.446C2676.02 226.14 2676.23 225.869 2676.49 225.652C2676.78 225.365 2677.14 225.142 2677.52 224.998C2677.91 224.853 2678.32 224.79 2678.73 224.812C2679.56 224.789 2680.36 225.09 2680.97 225.652C2681.22 225.874 2681.41 226.148 2681.54 226.454C2681.67 226.761 2681.73 227.093 2681.72 227.425V322.166Z" fill="#6A81C1" stroke="#3351AF"/>
<path d="M2760.03 716.995H2473.29C2462.16 717.069 2451.43 712.858 2443.32 705.234C2439.46 701.652 2436.37 697.322 2434.24 692.509C2432.11 687.695 2430.97 682.497 2430.91 677.232V575.117C2430.93 573.465 2431.6 571.888 2432.78 570.73C2434.06 569.582 2435.72 568.947 2437.44 568.947C2439.17 568.947 2440.83 569.582 2442.11 570.73C2443.29 571.888 2443.96 573.465 2443.98 575.117V676.858C2444 680.538 2444.77 684.176 2446.24 687.547C2447.72 690.918 2449.87 693.951 2452.57 696.46C2458.18 701.71 2465.6 704.615 2473.29 704.58H2760.03C2767.72 704.615 2775.13 701.71 2780.75 696.46C2783.44 693.951 2785.59 690.918 2787.07 687.547C2788.55 684.176 2789.32 680.538 2789.34 676.858V575.117C2789.36 573.465 2790.03 571.888 2791.21 570.73C2792.49 569.582 2794.15 568.947 2795.87 568.947C2797.59 568.947 2799.26 569.582 2800.54 570.73C2801.72 571.888 2802.39 573.465 2802.41 575.117V676.858C2802.34 682.124 2801.21 687.321 2799.08 692.135C2796.94 696.949 2793.85 701.279 2789.99 704.86C2781.94 712.621 2771.21 716.969 2760.03 716.995Z" fill="#3351AF" stroke="#3351AF" stroke-width="0.15"/>
<path d="M2782.9 326.459V391.797C2782.89 392.101 2782.95 392.403 2783.08 392.679C2783.21 392.954 2783.41 393.195 2783.64 393.384C2783.93 393.659 2784.26 393.875 2784.63 394.019C2785 394.164 2785.4 394.233 2785.79 394.224H2787C2787.36 394.083 2787.68 393.859 2787.94 393.571C2788.2 393.367 2788.43 393.114 2788.59 392.824C2788.64 392.546 2788.64 392.262 2788.59 391.984V325.525C2788.64 325.247 2788.64 324.963 2788.59 324.685L2787.94 323.845L2782.9 326.459ZM2782.9 326.459L2781.59 325.245L2679.76 230.038L2678.54 228.918H2467.87C2459.41 228.905 2451.25 232.069 2445 237.785C2442.06 240.569 2439.71 243.925 2438.1 247.649C2436.5 251.373 2435.67 255.385 2435.67 259.44V389.184C2435.65 389.505 2435.56 389.82 2435.42 390.108C2435.28 390.397 2435.08 390.653 2434.83 390.864C2434.23 391.369 2433.47 391.635 2432.68 391.61C2431.9 391.618 2431.14 391.354 2430.54 390.864C2430.3 390.652 2430.11 390.393 2429.98 390.104C2429.85 389.814 2429.79 389.5 2429.79 389.184V259.44C2429.82 254.744 2430.82 250.105 2432.73 245.815C2434.64 241.526 2437.42 237.679 2440.9 234.518C2448.28 227.676 2457.99 223.904 2468.06 223.971H2680.04H2681.25L2682.18 224.624L2788.12 323.658L2782.9 326.459Z" fill="#6A81C1"/>
<path d="M2782.9 326.459V391.797C2782.89 392.101 2782.95 392.403 2783.08 392.679C2783.21 392.954 2783.41 393.195 2783.64 393.384C2783.93 393.659 2784.26 393.875 2784.63 394.019C2785 394.164 2785.4 394.233 2785.79 394.224H2787M2782.9 326.459L2787.94 323.845L2788.59 324.685C2788.64 324.963 2788.64 325.247 2788.59 325.525V391.984C2788.64 392.262 2788.64 392.546 2788.59 392.824M2782.9 326.459L2781.59 325.245L2679.76 230.038L2678.54 228.918H2467.87C2459.41 228.905 2451.25 232.069 2445 237.785C2442.06 240.569 2439.71 243.925 2438.1 247.649C2436.5 251.373 2435.67 255.385 2435.67 259.44V389.184C2435.65 389.505 2435.56 389.82 2435.42 390.108C2435.28 390.397 2435.08 390.653 2434.83 390.864C2434.23 391.369 2433.47 391.635 2432.68 391.61C2431.9 391.618 2431.14 391.354 2430.54 390.864C2430.3 390.652 2430.11 390.393 2429.98 390.104C2429.85 389.814 2429.79 389.5 2429.79 389.184V259.44C2429.82 254.744 2430.82 250.105 2432.73 245.815C2434.64 241.526 2437.42 237.679 2440.9 234.518C2448.28 227.676 2457.99 223.904 2468.06 223.971H2680.04H2681.25L2682.18 224.624L2788.12 323.658L2782.9 326.459ZM2787 394.224L2788.5 398.051M2787 394.224C2787.36 394.083 2787.68 393.859 2787.94 393.571C2788.2 393.367 2788.43 393.114 2788.59 392.824M2788.59 392.824L2792.33 394.504" stroke="#3351AF"/>
<path d="M2782.13 376.198L2436.12 378.614C2415.55 378.758 2399 395.548 2399.14 416.116L2399.94 530.456C2400.08 551.024 2416.87 567.581 2437.44 567.438L2783.44 565.022C2804.01 564.878 2820.57 548.088 2820.43 527.52L2819.63 413.18C2819.48 392.612 2802.69 376.055 2782.13 376.198Z" fill="#3351AF" stroke="#3351AF"/>
<path d="M2584.64 430.722L2564.29 506.888H2550.2L2534.99 450.883L2521.26 506.888H2507.17L2486.35 430.722H2500.92L2515.66 486.726L2529.38 430.722H2543.2L2558.41 486.726L2572.88 430.722H2584.64Z" fill="white"/>
<path d="M2612.36 508.099C2608.73 508.191 2605.12 507.388 2601.87 505.761C2598.61 504.133 2595.81 501.731 2593.7 498.765C2589.31 492.822 2586.99 485.613 2587.07 478.23C2586.88 470.636 2589.47 463.235 2594.35 457.415C2596.75 454.697 2599.71 452.532 2603.03 451.068C2606.36 449.639 2609.96 448.969 2613.58 449.108C2617.07 448.997 2620.55 449.666 2623.75 451.068C2626.98 452.421 2629.85 454.496 2632.15 457.135C2637.17 462.986 2639.78 470.529 2639.43 478.23C2639.82 486.072 2637.1 493.751 2631.87 499.605C2629.48 502.287 2626.51 504.394 2623.19 505.765C2619.8 507.346 2616.1 508.143 2612.36 508.099ZM2612.36 497.551C2620.95 497.551 2625.25 491.204 2625.25 478.417C2625.48 473.678 2624.41 468.966 2622.17 464.789C2621.19 463.178 2619.81 461.857 2618.15 460.962C2616.49 460.087 2614.61 459.698 2612.74 459.842C2610.79 459.649 2608.83 460.074 2607.14 461.055C2605.38 461.922 2603.92 463.286 2602.94 464.976C2600.67 469.181 2599.57 473.921 2599.76 478.697C2599.45 483.595 2600.62 488.474 2603.12 492.698C2604.13 494.234 2605.51 495.488 2607.14 496.338C2608.88 497.283 2610.86 497.705 2612.83 497.551H2612.36Z" fill="white"/>
<path d="M2663.52 506.889H2650.82V450.884H2662.21V464.418C2663.27 460.039 2665.61 456.075 2668.93 453.031C2671.31 450.79 2674.43 449.496 2677.7 449.391H2679.38V463.018C2676.88 462.68 2674.34 463.083 2672.06 464.178C2669.79 465.274 2667.89 467.012 2666.6 469.179C2664.58 472.877 2663.49 477.009 2663.42 481.22L2663.52 506.889Z" fill="white"/>
<path d="M2735.01 506.888H2723.07V495.5C2722.06 499.123 2719.89 502.313 2716.88 504.574C2713.88 506.836 2710.21 508.043 2706.45 508.008C2703.21 508.116 2699.99 507.376 2697.12 505.861C2694.27 504.427 2691.88 502.23 2690.21 499.514C2686.33 493.045 2684.42 485.585 2684.7 478.046C2684.51 470.698 2686.49 463.457 2690.4 457.231C2692.06 454.442 2694.45 452.153 2697.31 450.604C2700.17 449.056 2703.39 448.284 2706.64 448.363C2709.9 448.187 2713.13 449.062 2715.85 450.86C2718.57 452.659 2720.64 455.285 2721.76 458.351V430.349H2734.45L2735.01 506.888ZM2722.23 473.659C2722.48 469.802 2721.32 465.985 2718.96 462.925C2717.91 461.733 2716.64 460.752 2715.23 460.031C2713.75 459.4 2712.16 459.082 2710.56 459.098C2708.77 459.109 2707.01 459.558 2705.43 460.404C2703.9 461.292 2702.62 462.543 2701.69 464.045C2699.32 468.55 2698.22 473.617 2698.52 478.699C2698.52 491.3 2702.44 497.367 2710.37 497.367C2711.97 497.391 2713.54 497.005 2714.95 496.247C2716.38 495.559 2717.66 494.573 2718.68 493.354C2721.13 490.474 2722.4 486.771 2722.23 482.993V473.659Z" fill="white"/>
<path d="M3216.28 582.861V587.154H3324.93C3325.78 587.16 3326.6 587.457 3327.26 587.994C3327.52 588.233 3327.73 588.521 3327.87 588.842C3328.02 589.163 3328.09 589.509 3328.1 589.861C3328.1 590.214 3328.02 590.562 3327.88 590.884C3327.73 591.205 3327.52 591.493 3327.26 591.728C3326.63 592.329 3325.8 592.664 3324.93 592.661H3212.92C3212.05 592.664 3211.21 592.329 3210.59 591.728C3210.32 591.493 3210.11 591.205 3209.97 590.884C3209.82 590.562 3209.75 590.214 3209.75 589.861V484.386C3209.75 484.034 3209.83 483.688 3209.97 483.367C3210.12 483.046 3210.33 482.758 3210.59 482.519C3211.21 481.918 3212.05 481.584 3212.92 481.586C3213.79 481.593 3214.62 481.926 3215.25 482.519C3215.51 482.758 3215.72 483.046 3215.86 483.367C3216.01 483.688 3216.09 484.034 3216.09 484.386L3216.28 582.861Z" fill="#B53332" stroke="#B53332"/>
<path d="M3297.39 991.882H3000.1C2988.58 991.914 2977.47 987.578 2969.02 979.747C2964.99 975.976 2961.77 971.425 2959.56 966.37C2957.34 961.315 2956.18 955.863 2956.14 950.345V844.87C2956.15 844.022 2956.34 843.187 2956.7 842.416C2957.05 841.645 2957.56 840.955 2958.19 840.39C2959.48 839.173 2961.18 838.504 2962.95 838.523C2964.75 838.499 2966.49 839.167 2967.81 840.39C2968.41 840.97 2968.9 841.665 2969.23 842.434C2969.57 843.203 2969.75 844.031 2969.77 844.87V950.345C2969.78 954.162 2970.57 957.936 2972.1 961.435C2973.62 964.935 2975.85 968.085 2978.63 970.693C2984.45 976.134 2992.14 979.14 3000.1 979.094H3297.39C3305.36 979.14 3313.04 976.134 3318.86 970.693C3321.65 968.085 3323.87 964.935 3325.4 961.435C3326.92 957.936 3327.71 954.162 3327.73 950.345V844.87C3327.74 844.022 3327.93 843.187 3328.29 842.416C3328.64 841.645 3329.15 840.955 3329.78 840.39C3331.07 839.173 3332.77 838.504 3334.54 838.523C3336.34 838.499 3338.08 839.167 3339.39 840.39C3340 840.97 3340.49 841.665 3340.82 842.434C3341.16 843.203 3341.34 844.031 3341.36 844.87V950.345C3341.31 955.863 3340.15 961.315 3337.94 966.37C3335.72 971.425 3332.5 975.976 3328.47 979.747C3320.03 987.594 3308.92 991.933 3297.39 991.882Z" fill="#B53332" stroke="#B53332" stroke-width="0.15"/>
<path d="M3321.1 587.062V654.361C3321.09 654.679 3321.16 654.994 3321.28 655.285C3321.41 655.575 3321.61 655.834 3321.85 656.041C3322.48 656.565 3323.27 656.861 3324.09 656.881H3325.39L3326.33 656.228L3326.98 655.387C3327.02 655.109 3327.02 654.826 3326.98 654.547V586.222C3327.02 585.944 3327.02 585.66 3326.98 585.382L3326.33 584.542L3321.1 587.062ZM3321.1 587.062L3319.7 585.755L3214.13 487.094L3212.92 485.881H2994.5C2985.7 485.857 2977.22 489.195 2970.79 495.215C2967.7 498.092 2965.22 501.571 2963.52 505.44C2961.82 509.308 2960.93 513.484 2960.9 517.71V652.12C2960.88 652.783 2960.61 653.414 2960.15 653.894C2959.49 654.432 2958.67 654.728 2957.82 654.734C2957 654.714 2956.21 654.418 2955.58 653.894C2955.12 653.414 2954.85 652.783 2954.83 652.12V517.71C2954.86 512.828 2955.9 508.005 2957.87 503.541C2959.85 499.077 2962.72 495.067 2966.31 491.761C2973.96 484.753 2983.94 480.858 2994.31 480.84H3214.04C3214.47 480.752 3214.91 480.752 3215.35 480.84C3215.69 480.97 3216 481.16 3216.28 481.4L3326.14 584.075L3321.1 587.062Z" fill="#B53332"/>
<path d="M3321.1 587.062V654.361C3321.09 654.679 3321.16 654.994 3321.28 655.285C3321.41 655.575 3321.61 655.834 3321.85 656.041C3322.48 656.565 3323.27 656.861 3324.09 656.881H3325.39M3321.1 587.062L3326.33 584.542L3326.98 585.382C3327.02 585.66 3327.02 585.944 3326.98 586.222V654.547C3327.02 654.826 3327.02 655.109 3326.98 655.387M3321.1 587.062L3319.7 585.755L3214.13 487.094L3212.92 485.881H2994.5C2985.7 485.857 2977.22 489.195 2970.79 495.215C2967.7 498.092 2965.22 501.571 2963.52 505.44C2961.82 509.308 2960.93 513.484 2960.9 517.71V652.12C2960.88 652.783 2960.61 653.414 2960.15 653.894C2959.49 654.432 2958.67 654.728 2957.82 654.734C2957 654.714 2956.21 654.418 2955.58 653.894C2955.12 653.414 2954.85 652.783 2954.83 652.12V517.71C2954.86 512.828 2955.9 508.005 2957.87 503.541C2959.85 499.077 2962.72 495.067 2966.31 491.761C2973.96 484.753 2983.94 480.858 2994.31 480.84H3214.04C3214.47 480.752 3214.91 480.752 3215.35 480.84C3215.69 480.97 3216 481.16 3216.28 481.4L3326.14 584.075L3321.1 587.062ZM3325.39 656.881L3326.89 660.801M3325.39 656.881L3326.33 656.228L3326.98 655.387M3326.98 655.387L3330.9 657.161" stroke="#B53332"/>
<path d="M3320.28 638.64L2961.49 641.145C2940.2 641.294 2923.06 658.673 2923.21 679.963L2924.04 798.596C2924.19 819.886 2941.57 837.024 2962.86 836.876L3321.65 834.371C3342.94 834.222 3360.08 816.843 3359.93 795.553L3359.1 676.92C3358.95 655.63 3341.57 638.491 3320.28 638.64Z" fill="#B53332" stroke="#B53332"/>
<path d="M3083.18 695.53V749.948C3083.82 756.952 3081.89 763.95 3077.76 769.643C3075.45 771.803 3072.71 773.452 3069.72 774.482C3066.73 775.511 3063.55 775.898 3060.4 775.617C3056.81 775.768 3053.22 775.358 3049.76 774.403V763.016L3058.25 763.482C3059.91 763.722 3061.6 763.605 3063.21 763.138C3064.82 762.671 3066.31 761.866 3067.59 760.775C3069.59 757.54 3070.44 753.727 3070.01 749.948V695.53H3083.18Z" fill="white"/>
<path d="M3122.47 775.335H3108.1V695.529H3140.77C3144.52 695.208 3148.31 695.673 3151.87 696.895C3155.44 698.116 3158.72 700.067 3161.49 702.623C3165.89 707.325 3168.29 713.546 3168.21 719.984C3168.12 726.414 3165.51 732.55 3160.93 737.066C3158.42 739.377 3155.48 741.168 3152.27 742.338C3149.07 743.507 3145.67 744.031 3142.26 743.879H3122.38L3122.47 775.335ZM3122.47 731.185H3139.46C3143.16 731.448 3146.82 730.241 3149.63 727.825C3150.82 726.706 3151.75 725.335 3152.34 723.811C3152.9 722.318 3153.18 720.738 3153.18 719.144C3153.19 715.987 3151.99 712.946 3149.82 710.65C3148.21 709.305 3146.35 708.298 3144.35 707.688C3142.34 707.079 3140.24 706.88 3138.15 707.103H3122.47V731.185Z" fill="white"/>
<path d="M3240.92 734.355V774.118H3234.95L3231.59 763.664C3229.71 767.327 3226.82 770.375 3223.27 772.444C3219.71 774.512 3215.63 775.515 3211.52 775.331C3207 775.576 3202.51 774.574 3198.52 772.434C3194.54 770.293 3191.22 767.098 3188.93 763.197C3183.84 754.759 3181.25 745.048 3181.46 735.195C3181.25 725.224 3184.16 715.436 3189.77 707.192C3192.35 703.473 3195.82 700.457 3199.86 698.419C3203.91 696.381 3208.39 695.386 3212.92 695.525C3216.33 695.358 3219.74 695.874 3222.94 697.044C3226.15 698.215 3229.09 700.015 3231.59 702.339C3236.48 706.787 3239.76 712.726 3240.92 719.233L3229.35 721.38C3227.11 712.046 3221.97 707.192 3213.76 707.192C3211.23 707.139 3208.73 707.716 3206.48 708.873C3204.24 710.085 3202.32 711.812 3200.88 713.913C3197.15 720.117 3195.42 727.32 3195.93 734.541C3195.93 754.236 3201.81 764.037 3213.48 764.037C3215.6 764.114 3217.71 763.699 3219.64 762.824C3221.62 761.951 3223.4 760.68 3224.87 759.09C3227.96 755.42 3229.56 750.722 3229.35 745.929H3212.92V734.635L3240.92 734.355Z" fill="white"/>
<path d="M2922.43 2899.81V3032H2898.79C2885.57 3032 2875 3021.42 2875 3008.35V2923.61C2875 2910.53 2885.72 2899.81 2898.79 2899.81H2922.43ZM3087.78 2877.78H3017.59V2826.38C3017.59 2810.22 3004.37 2797 2988.37 2797H2987.05C2981.17 2797 2975.89 2800.53 2973.54 2805.96L2933.45 2899.81V3032H3068.55C3079.27 3032 3088.37 3024.36 3090.28 3013.79L3109.66 2903.63C3112.01 2890.12 3101.73 2877.78 3087.93 2877.78H3087.78Z" fill="#198754"/>
</svg>
