<svg width="131" height="130" viewBox="0 0 131 130" fill="none" xmlns="http://www.w3.org/2000/svg">
<path d="M75.1439 15.2852V15.7852H75.6439H89.1918C89.3159 15.7852 89.4348 15.8345 89.5225 15.9222C89.6102 16.0099 89.6595 16.1289 89.6595 16.2529C89.6595 16.3769 89.6102 16.4959 89.5225 16.5836C89.4348 16.6713 89.3159 16.7206 89.1918 16.7206H74.6761C74.5521 16.7206 74.4331 16.6713 74.3454 16.5836C74.2577 16.4959 74.2084 16.377 74.2084 16.2529V1.73724C74.2084 1.6132 74.2577 1.49423 74.3454 1.40652C74.4331 1.31881 74.5521 1.26953 74.6761 1.26953C74.8002 1.26953 74.9192 1.31881 75.0069 1.40652C75.0946 1.49423 75.1439 1.6132 75.1439 1.73724V15.2852Z" fill="black" stroke="black"/>
<path d="M88.7242 15.884V15.6769L88.5778 15.5305L74.6292 1.58187L74.4827 1.43542H74.2756H45.6449C44.4857 1.43542 43.374 1.89592 42.5543 2.71561C41.7346 3.53531 41.2741 4.64705 41.2741 5.80627V24.8063C41.2741 24.9303 41.2248 25.0493 41.1371 25.137C41.0494 25.2247 40.9304 25.274 40.8064 25.274C40.6823 25.274 40.5634 25.2247 40.4757 25.137C40.388 25.0493 40.3387 24.9303 40.3387 24.8063V5.80627C40.3387 4.39896 40.8977 3.04929 41.8929 2.05417C42.888 1.05905 44.2376 0.500002 45.6449 0.500002L74.6763 0.500002L74.6772 0.500001C74.7386 0.499891 74.7995 0.511896 74.8563 0.53533C74.9131 0.558732 74.9646 0.593074 75.0081 0.636396C75.0082 0.636455 75.0082 0.636513 75.0083 0.636572L89.5231 15.1513C89.5665 15.1949 89.6009 15.2465 89.6243 15.3033C89.6478 15.3601 89.6598 15.421 89.6596 15.4825V15.4834V25.1276C89.6596 25.189 89.6475 25.2498 89.624 25.3066C89.6005 25.3633 89.5661 25.4149 89.5227 25.4583C89.4792 25.5017 89.4277 25.5362 89.3709 25.5597C89.3142 25.5832 89.2534 25.5953 89.1919 25.5953C89.0679 25.5953 88.9489 25.546 88.8612 25.4583C88.7735 25.3706 88.7242 25.2516 88.7242 25.1276V15.884Z" fill="black" stroke="black"/>
<path d="M84.3534 69.9439H45.6449C44.2376 69.9439 42.888 69.3849 41.8929 68.3898C40.8977 67.3946 40.3387 66.045 40.3387 64.6377V50.122C40.3387 49.998 40.388 49.879 40.4757 49.7913C40.5634 49.7036 40.6824 49.6543 40.8064 49.6543C40.9304 49.6543 41.0494 49.7036 41.1371 49.7913C41.2248 49.879 41.2741 49.998 41.2741 50.122V64.6377C41.2741 65.7969 41.7346 66.9086 42.5543 67.7283C43.374 68.548 44.4857 69.0085 45.6449 69.0085H84.3534C85.5126 69.0085 86.6243 68.548 87.444 67.7283C88.2637 66.9086 88.7242 65.7969 88.7242 64.6377V50.122C88.7242 49.998 88.7735 49.879 88.8612 49.7913C88.9489 49.7036 89.0679 49.6543 89.1919 49.6543C89.316 49.6543 89.4349 49.7036 89.5227 49.7913C89.6104 49.879 89.6596 49.998 89.6596 50.122V64.6377C89.6596 66.045 89.1006 67.3946 88.1055 68.3898C87.1104 69.3849 85.7607 69.9439 84.3534 69.9439Z" fill="black" stroke="black"/>
<path d="M79.5147 50.5897H50.4834C50.3594 50.5897 50.2404 50.5404 50.1527 50.4527C50.065 50.365 50.0157 50.2461 50.0157 50.122C50.0157 49.998 50.065 49.879 50.1527 49.7913C50.2404 49.7036 50.3594 49.6543 50.4834 49.6543H79.5147C79.6388 49.6543 79.7577 49.7036 79.8454 49.7913C79.9332 49.879 79.9824 49.998 79.9824 50.122C79.9824 50.246 79.9332 50.365 79.8454 50.4527C79.7577 50.5404 79.6388 50.5897 79.5147 50.5897Z" stroke="black"/>
<path d="M64.9991 60.2655H50.4834C50.3594 60.2655 50.2404 60.2162 50.1527 60.1285C50.065 60.0408 50.0157 59.9218 50.0157 59.7978C50.0157 59.6737 50.065 59.5548 50.1527 59.4671C50.2404 59.3794 50.3594 59.3301 50.4834 59.3301H64.9991C65.1231 59.3301 65.2421 59.3794 65.3298 59.4671C65.4175 59.5548 65.4668 59.6737 65.4668 59.7978C65.4668 59.9218 65.4175 60.0408 65.3298 60.1285C65.2421 60.2162 65.1231 60.2655 64.9991 60.2655Z" fill="black" stroke="black"/>
<path d="M89.192 50.5898H89.1918H40.8063C39.399 50.5898 38.0493 50.0307 37.0542 49.0356C36.0591 48.0405 35.5 46.6908 35.5 45.2835V30.4137C35.5 29.0064 36.0591 27.6567 37.0542 26.6616C38.0493 25.6665 39.399 25.1074 40.8063 25.1074H40.8433H40.845L89.2259 25.4287C89.2261 25.4287 89.2263 25.4287 89.2265 25.4287C90.6269 25.4419 91.9656 26.0063 92.9527 26.9997C93.9396 27.9929 94.4955 29.335 94.5 30.7352C94.5 30.7356 94.5 30.736 94.5 30.7364L94.5 45.2835C94.5 45.9805 94.3627 46.6707 94.0959 47.3146C93.8291 47.9585 93.4381 48.5435 92.9452 49.0363C92.4523 49.529 91.8671 49.9198 91.2231 50.1864C90.5791 50.453 89.8889 50.59 89.192 50.5898ZM93.5626 30.735L93.5626 30.7335C93.5592 29.5802 93.1014 28.4748 92.2884 27.6569C91.4754 26.839 90.3727 26.3745 89.2195 26.3641L89.2183 26.3641L40.8328 26.0429L40.8328 26.0428H40.8295H40.8063C39.647 26.0428 38.5353 26.5033 37.7156 27.323C36.8959 28.1427 36.4354 29.2545 36.4354 30.4137V45.2835C36.4354 46.4428 36.8959 47.5545 37.7156 48.3742C38.5353 49.1939 39.647 49.6544 40.8063 49.6544H89.1918C90.351 49.6544 91.4628 49.1939 92.2825 48.3742C93.1021 47.5545 93.5626 46.4428 93.5626 45.2835L93.5626 30.735Z" fill="black" stroke="black"/>
<path d="M53.8541 38.486V42.0755H52.9942V32.7559H56.7212C57.8493 32.7559 58.5871 33.0399 59.0401 33.5128C59.5223 34.0196 59.7861 34.6955 59.7749 35.3949C59.7636 36.0913 59.4806 36.7555 58.9865 37.2459C58.4302 37.7474 57.7006 38.013 56.9519 37.9863L56.943 37.986H56.9341H54.3541H53.8541V38.486ZM53.8541 36.8912V37.3912H54.3541H56.5547C57.2063 37.3912 57.7853 37.2305 58.2117 36.8331L58.2117 36.8332L58.216 36.8291C58.4191 36.6353 58.5784 36.4002 58.6831 36.1397C58.786 35.884 58.8339 35.6096 58.8238 35.3343C58.8291 34.8066 58.6305 34.297 58.2691 33.9119C57.8429 33.4535 57.1569 33.3003 56.3883 33.3003H54.3541H53.8541V33.8003V36.8912Z" fill="black" stroke="black"/>
<path d="M63.121 41.0564L63.1211 41.5562H63.621H65.1662C65.6364 41.5619 66.1024 41.4664 66.5325 41.2761C66.9618 41.0861 67.3454 40.8062 67.6572 40.4553C68.3499 39.7057 68.6545 38.6371 68.6557 37.3382C68.6857 36.3223 68.3885 35.3236 67.8077 34.4895C67.541 34.0934 67.1796 33.7702 66.7562 33.5494C66.3329 33.3285 65.8611 33.217 65.3837 33.2248H63.6191H63.1189L63.1191 33.725L63.121 41.0564ZM62.2088 42.0755V32.7559H65.5216C66.7942 32.7559 67.7798 33.1984 68.5287 34.0732C69.2939 34.9671 69.6859 36.0735 69.6859 37.4254C69.6859 38.7789 69.2833 39.8788 68.4968 40.7601C67.7359 41.6127 66.6311 42.0705 65.1048 42.0755H62.2088Z" fill="black" stroke="black"/>
<path d="M73.8226 37.1706H76.9516V37.7189H73.8226H73.3226V38.2189V42.0755H72.4085V32.7559H77.9328V33.3506H73.8226H73.3226V33.8506V36.6706V37.1706H73.8226Z" fill="black" stroke="black"/>
<path d="M115.336 89.5114V90.0114H115.836H126.118C126.189 90.0114 126.251 90.0382 126.294 90.0781C126.335 90.1171 126.352 90.164 126.352 90.2067C126.352 90.2494 126.335 90.2962 126.294 90.3352C126.251 90.3751 126.189 90.402 126.118 90.402H115.101C115.031 90.402 114.968 90.3751 114.926 90.3352C114.885 90.2962 114.867 90.2494 114.867 90.2067V79.7773C114.867 79.7346 114.885 79.6878 114.926 79.6488C114.968 79.6089 115.031 79.582 115.101 79.582C115.172 79.582 115.235 79.6089 115.277 79.6488C115.318 79.6878 115.336 79.7346 115.336 79.7773V89.5114Z" fill="#0F3D4A" stroke="#0F3D4A"/>
<path d="M123.615 130H94.3846C93.2217 130 92.1065 129.483 91.2842 128.562C90.4619 127.642 90 126.393 90 125.091V112.818C90 112.601 90.077 112.393 90.214 112.24C90.3511 112.086 90.537 112 90.7308 112C90.9246 112 91.1105 112.086 91.2475 112.24C91.3845 112.393 91.4615 112.601 91.4615 112.818V125.091C91.4615 125.959 91.7695 126.791 92.3177 127.405C92.8659 128.019 93.6094 128.364 94.3846 128.364H123.615C124.391 128.364 125.134 128.019 125.682 127.405C126.23 126.791 126.538 125.959 126.538 125.091V112.818C126.538 112.601 126.615 112.393 126.753 112.24C126.89 112.086 127.075 112 127.269 112C127.463 112 127.649 112.086 127.786 112.24C127.923 112.393 128 112.601 128 112.818V125.091C128 126.393 127.538 127.642 126.716 128.562C125.894 129.483 124.778 130 123.615 130Z" fill="#0F3D4A"/>
<path d="M125.849 90.109V89.8919L125.69 89.7437L115.256 79.9884L115.112 79.8536H114.915H93.4979C92.6078 79.8536 91.7479 80.1839 91.109 80.7813C90.4689 81.3798 90.1024 82.1989 90.1024 83.0608V96.349C90.1024 96.3847 90.0875 96.4262 90.0489 96.4624C90.0091 96.4996 89.9483 96.5258 89.8785 96.5258C89.8087 96.5258 89.7479 96.4996 89.7081 96.4624C89.6694 96.4262 89.6546 96.3847 89.6546 96.349V83.0608C89.6546 82.1277 90.0508 81.2254 90.7682 80.5546C91.4868 79.8828 92.4681 79.5 93.4979 79.5L115.214 79.5L115.215 79.5C115.249 79.4999 115.282 79.5062 115.312 79.5176C115.341 79.5291 115.366 79.5451 115.386 79.5632C115.386 79.5632 115.386 79.5633 115.386 79.5633L126.243 89.7144C126.262 89.7325 126.276 89.7522 126.284 89.7713C126.293 89.7903 126.296 89.8094 126.296 89.8278V89.8288V96.5737C126.296 96.5921 126.293 96.6112 126.284 96.6302C126.276 96.6493 126.262 96.669 126.243 96.6871C126.223 96.7052 126.199 96.7213 126.169 96.7328C126.139 96.7443 126.106 96.7505 126.072 96.7505C126.003 96.7505 125.942 96.7243 125.902 96.6871C125.863 96.6509 125.849 96.6094 125.849 96.5737V90.109Z" fill="#0F3D4A" stroke="#0F3D4A"/>
<rect x="129.925" y="94.5889" width="20.1899" height="43.9262" rx="5" transform="rotate(89.6034 129.925 94.5889)" fill="#0F3D4A"/>
<path d="M98.7092 105.492V108.156H98.2096V101.172H101.118C102.017 101.172 102.585 101.39 102.925 101.73C103.293 102.102 103.491 102.594 103.483 103.098C103.475 103.6 103.262 104.083 102.885 104.444C102.456 104.814 101.89 105.013 101.306 104.993L101.298 104.992H101.289H99.2092H98.7092V105.492ZM98.7092 104.258V104.758H99.2092H100.983C101.519 104.758 102.01 104.632 102.378 104.303L102.378 104.303L102.382 104.299C102.557 104.139 102.695 103.944 102.787 103.726C102.876 103.513 102.918 103.283 102.91 103.052C102.914 102.609 102.74 102.186 102.429 101.869C102.057 101.484 101.472 101.367 100.849 101.367H99.2092H98.7092V101.867V104.258Z" fill="white" stroke="white"/>
<path d="M106.168 107.481L106.168 107.981H106.668H107.915C108.305 107.985 108.692 107.909 109.05 107.758C109.407 107.606 109.728 107.382 109.99 107.1C110.576 106.492 110.827 105.631 110.829 104.606C110.853 103.792 110.604 102.993 110.121 102.328C109.895 102.006 109.59 101.746 109.236 101.568C108.881 101.391 108.488 101.302 108.09 101.308H106.666H106.166L106.166 101.809L106.168 107.481ZM105.624 108.156V101.172H108.202C109.211 101.172 109.981 101.507 110.564 102.16C111.161 102.829 111.468 103.655 111.468 104.672C111.468 105.688 111.154 106.509 110.539 107.169C109.949 107.803 109.084 108.153 107.865 108.156H105.624Z" fill="white" stroke="white"/>
<path d="M114.614 104.588H116.969V104.786H114.614H114.114V105.286V108.156H113.608V101.172H117.741V101.406H114.614H114.114V101.906V104.088V104.588H114.614Z" fill="white" stroke="white"/>
<path d="M29.3359 89.5114V90.0114H29.8359H40.1179C40.1887 90.0114 40.2514 90.0382 40.2935 90.0781C40.3347 90.1171 40.3524 90.164 40.3524 90.2067C40.3524 90.2494 40.3347 90.2962 40.2935 90.3352C40.2514 90.3751 40.1887 90.402 40.1179 90.402H29.1014C29.0307 90.402 28.968 90.3751 28.9259 90.3352C28.8847 90.2962 28.867 90.2494 28.867 90.2067V79.7773C28.867 79.7346 28.8847 79.6878 28.9259 79.6488C28.968 79.6089 29.0307 79.582 29.1014 79.582C29.1722 79.582 29.2349 79.6089 29.277 79.6488C29.3182 79.6878 29.3359 79.7346 29.3359 79.7773V89.5114Z" fill="#0F3D4A" stroke="#0F3D4A"/>
<path d="M37.6154 130H8.38462C7.22174 130 6.1065 129.483 5.28422 128.562C4.46195 127.642 4 126.393 4 125.091V112.818C4 112.601 4.07699 112.393 4.21404 112.24C4.35108 112.086 4.53696 112 4.73077 112C4.92458 112 5.11046 112.086 5.2475 112.24C5.38455 112.393 5.46154 112.601 5.46154 112.818V125.091C5.46154 125.959 5.7695 126.791 6.31769 127.405C6.86587 128.019 7.60937 128.364 8.38462 128.364H37.6154C38.3906 128.364 39.1341 128.019 39.6823 127.405C40.2305 126.791 40.5385 125.959 40.5385 125.091V112.818C40.5385 112.601 40.6155 112.393 40.7525 112.24C40.8895 112.086 41.0754 112 41.2692 112C41.463 112 41.6489 112.086 41.786 112.24C41.923 112.393 42 112.601 42 112.818V125.091C42 126.393 41.5381 127.642 40.7158 128.562C39.8935 129.483 38.7783 130 37.6154 130Z" fill="#0F3D4A"/>
<path d="M39.8486 90.109V89.8919L39.69 89.7437L29.256 79.9884L29.1119 79.8536H28.9146H7.49788C6.60778 79.8536 5.74793 80.1839 5.10896 80.7813C4.46886 81.3798 4.10236 82.1989 4.10236 83.0608V96.349C4.10236 96.3847 4.08753 96.4262 4.04887 96.4624C4.00906 96.4996 3.9483 96.5258 3.87848 96.5258C3.80866 96.5258 3.7479 96.4996 3.7081 96.4624C3.66943 96.4262 3.6546 96.3847 3.6546 96.349V83.0608C3.6546 82.1277 4.05076 81.2254 4.76819 80.5546C5.48677 79.8828 6.46813 79.5 7.49788 79.5L29.2143 79.5L29.2151 79.5C29.249 79.4999 29.2819 79.5062 29.3117 79.5176C29.3413 79.5291 29.3662 79.5451 29.3857 79.5632C29.3857 79.5632 29.3857 79.5633 29.3857 79.5633L40.243 89.7144C40.2623 89.7325 40.2757 89.7522 40.2842 89.7713C40.2926 89.7903 40.2964 89.8094 40.2963 89.8278V89.8288V96.5737C40.2963 96.5921 40.2925 96.6112 40.2841 96.6302C40.2756 96.6493 40.2622 96.669 40.2428 96.6871C40.2234 96.7052 40.1985 96.7213 40.1689 96.7328C40.1392 96.7443 40.1063 96.7505 40.0724 96.7505C40.0026 96.7505 39.9419 96.7243 39.9021 96.6871C39.8634 96.6509 39.8486 96.6094 39.8486 96.5737V90.109Z" fill="#0F3D4A" stroke="#0F3D4A"/>
<rect x="43.9252" y="94.5889" width="20.1899" height="43.9262" rx="5" transform="rotate(89.6034 43.9252 94.5889)" fill="#0F3D4A"/>
<path d="M12.7092 105.492V108.156H12.2096V101.172H15.1177C16.0175 101.172 16.585 101.39 16.9245 101.73C17.2933 102.102 17.4914 102.594 17.483 103.098C17.4745 103.6 17.2624 104.083 16.8851 104.444C16.4563 104.814 15.8904 105.013 15.3064 104.993L15.2979 104.992H15.2893H13.2092H12.7092V105.492ZM12.7092 104.258V104.758H13.2092H14.9835C15.519 104.758 16.0101 104.632 16.3779 104.303L16.3779 104.303L16.3823 104.299C16.5569 104.139 16.6953 103.944 16.7867 103.726C16.8761 103.513 16.9182 103.283 16.9099 103.052C16.9137 102.609 16.7395 102.186 16.4295 101.869C16.0571 101.484 15.4722 101.367 14.8493 101.367H13.2092H12.7092V101.867V104.258Z" fill="white" stroke="white"/>
<path d="M20.1676 107.481L20.1677 107.981H20.6676H21.9146C22.3047 107.985 22.6919 107.909 23.05 107.758C23.4074 107.606 23.7283 107.382 23.9904 107.1C24.576 106.492 24.8273 105.631 24.8286 104.606C24.8533 103.792 24.6043 102.993 24.1214 102.328C23.8951 102.006 23.5901 101.746 23.2357 101.568C22.8812 101.391 22.4875 101.302 22.0901 101.308H20.666H20.1659L20.166 101.809L20.1676 107.481ZM19.6238 108.156V101.172H22.202C23.211 101.172 23.981 101.507 24.5635 102.16C25.1614 102.829 25.4677 103.655 25.4677 104.672C25.4677 105.688 25.1535 106.509 24.5393 107.169C23.9491 107.803 23.0837 108.153 21.8653 108.156H19.6238Z" fill="white" stroke="white"/>
<path d="M28.6143 104.588H30.9694V104.786H28.6143H28.1143V105.286V108.156H27.6084V101.172H31.7414V101.406H28.6143H28.1143V101.906V104.088V104.588H28.6143Z" fill="white" stroke="white"/>
<path d="M19.5 73V66.2656C19.5006 62.8888 20.4665 59.5978 22.2611 56.8582C24.0558 54.1186 26.5882 52.0692 29.5 51" stroke="black" stroke-width="2" stroke-linecap="round" stroke-linejoin="round"/>
<path d="M14 70.5L19 75.5L24 70.5" stroke="black" stroke-width="2" stroke-linecap="round" stroke-linejoin="round"/>
<path d="M100 51C102.912 52.0692 105.444 54.1186 107.239 56.8582C109.033 59.5978 109.999 62.8888 110 66.2656V73" stroke="black" stroke-width="2" stroke-linecap="round" stroke-linejoin="round"/>
<path d="M105 70.5L110 75.5L115 70.5" stroke="black" stroke-width="2" stroke-linecap="round" stroke-linejoin="round"/>
</svg>
